<svg xmlns="http://www.w3.org/2000/svg" viewBox="0 0 161.09 88.01"><title>fsg</title><g id="SIDE_CONFETTI" data-name="SIDE CONFETTI"><path d="M159.86,18.73a21.39,21.39,0,0,1-2.11,6.42A6.58,6.58,0,0,1,154,28.41L118.74,40.3l-.07,0-10,10.33,8.92,1.46L110,54.69l-9-2.08,1.71-6.88L99.4,46.82,92,54.8l8.64,1.8-5.25,3L82.82,57.89l5.31-7.26L71.65,56.18h0L61,67.23l8.92,1.46-7.65,2.58-9-2.08L55,61.78l-2.69.91h0l-8.08,8.68,8.63,1.8-5.24,3L36.88,73.25l4-6.68-2.11.71a5.61,5.61,0,0,1-1.37.27l.08.17C26.57,75,9.62,81,3.79,82.93c11.69-5.16,25.06-33.4,25.35-34h0A47.36,47.36,0,0,1,121,31.19s4.24-13.42,4.59-13.45h.08a24.34,24.34,0,0,1,4.33,0c7.44.61,14,4,18.65,3.44A28.14,28.14,0,0,0,158.86,18,.68.68,0,0,1,159.86,18.73Z" fill="#ff39e7"/><path d="M115.88,21.08h0a23.4,23.4,0,0,1,2.84-1.54" fill="#ff39e7"/><path d="M155.34,19.62s1.08,3.32,3.82,2.11" fill="#ff39e7"/><path d="M1.76,83.58l2-.66A9.35,9.35,0,0,1,1.76,83.58Z" fill="#ff39e7"/><ellipse cx="133.13" cy="23.13" rx="1.29" ry="1.79" transform="translate(-0.41 43.76) rotate(-18.64)" fill="#ff39e7"/><path d="M110.48,43.08S112.12,13.95,82.22.35" fill="#ff39e7"/><path d="M95.59,48.11S105.4,23.19,67,1.21" fill="#ff39e7"/><path d="M80.93,53.05S84.71,26.34,51.81,6.94" fill="#ff39e7"/><path d="M66.52,57.91s1.05-28.32-28.62-38" fill="#ff39e7"/><path d="M48.93,63S47.84,43.59,29.47,41.57" fill="#ff39e7"/><path d="M123.15,10.87c1.53,4.55-.85,9.46-.85,9.46s-4.87-2.46-6.41-7,.85-9.46.85-9.46S121.62,6.32,123.15,10.87Z" fill="#ff39e7"/><path d="M122.93,10.26A15.43,15.43,0,0,1,128.16,6s2.21,5,.52,9.49a10.15,10.15,0,0,1-1.16,2.17" fill="#ff39e7"/><line x1="121.25" y1="19.7" x2="121.25" y2="19.69" fill="#ff39e7"/><polygon points="125.66 17.73 112.97 20.81 119.52 32.93 130.84 28.34 125.66 17.73" fill="#ff39e7"/><polygon points="124.38 20.81 123.66 11.24 127.09 9.87 128.98 16 124.38 20.81" fill="#ff39e7"/><path d="M69.74,4h0A47.36,47.36,0,0,1,117.1,51.37v1.55a5.26,5.26,0,0,1-5.26,5.26H27.64a5.26,5.26,0,0,1-5.26-5.26V51.37A47.36,47.36,0,0,1,69.74,4Z" transform="translate(-6.28 23.92) rotate(-18.64)" fill="none" stroke="#3a1772" stroke-linecap="round" stroke-linejoin="round" stroke-width="2.97"/><path d="M115.62,24h0a23.4,23.4,0,0,1,2.84-1.54" fill="none" stroke="#3a1772" stroke-linecap="round" stroke-linejoin="round" stroke-width="2.97"/><path d="M118.29,43.3l35.42-11.95a6.56,6.56,0,0,0,3.77-3.26,21.52,21.52,0,0,0,2.12-6.42.68.68,0,0,0-1-.68,28.23,28.23,0,0,1-10.23,3.13c-4.66.57-11.2-2.84-18.65-3.45a25.15,25.15,0,0,0-4.32,0h-.09c-.34,0-.69.07-1,.12" fill="none" stroke="#3a1772" stroke-linecap="round" stroke-linejoin="round" stroke-width="2.97"/><path d="M155.08,22.55s1.08,3.32,3.82,2.11" fill="none" stroke="#3a1772" stroke-linecap="round" stroke-linejoin="round" stroke-width="2.97"/><path d="M28.88,51.85S13.72,84.1,1.48,86.52c0,0,22.4-7,35.72-15.87" fill="none" stroke="#3a1772" stroke-linecap="round" stroke-linejoin="round" stroke-width="2.97"/><polyline points="40.62 69.5 36.62 76.19 47.4 79.12 52.65 76.12 44.01 74.31 52.1 65.63" fill="none" stroke="#3a1772" stroke-linecap="round" stroke-linejoin="round" stroke-width="2.97"/><polyline points="54.79 64.72 52.93 72.13 61.98 74.2 69.63 71.62 60.7 70.17 71.39 59.12" fill="none" stroke="#3a1772" stroke-linecap="round" stroke-linejoin="round" stroke-width="2.97"/><polyline points="88.33 53.67 82.56 61.58 95.11 63.3 100.36 60.3 91.72 58.49 99.81 49.8" fill="none" stroke="#3a1772" stroke-linecap="round" stroke-linejoin="round" stroke-width="2.97"/><polyline points="102.5 48.9 100.64 56.3 109.69 58.38 117.34 55.8 108.42 54.34 119.1 43.3" fill="none" stroke="#3a1772" stroke-linecap="round" stroke-linejoin="round" stroke-width="2.97"/><ellipse cx="132.87" cy="26.06" rx="1.29" ry="1.79" transform="translate(-1.36 43.84) rotate(-18.64)" fill="none" stroke="#3a1772" stroke-linecap="round" stroke-linejoin="round" stroke-width="2.97"/><path d="M110.22,46S111.86,16.88,82,3.29" fill="none" stroke="#3a1772" stroke-linecap="round" stroke-linejoin="round" stroke-width="2.97"/><path d="M95.33,51s9.82-24.92-28.61-46.9" fill="none" stroke="#3a1772" stroke-linecap="round" stroke-linejoin="round" stroke-width="2.97"/><path d="M80.67,56S84.45,29.28,51.55,9.87" fill="none" stroke="#3a1772" stroke-linecap="round" stroke-linejoin="round" stroke-width="2.97"/><path d="M66.26,60.85s1.05-28.32-28.62-38" fill="none" stroke="#3a1772" stroke-linecap="round" stroke-linejoin="round" stroke-width="2.97"/><path d="M48.67,66S47.58,46.52,29.21,44.51" fill="none" stroke="#3a1772" stroke-linecap="round" stroke-linejoin="round" stroke-width="2.97"/><path d="M122.89,13.8c1.53,4.55-.85,9.46-.85,9.46s-4.87-2.46-6.41-7,.85-9.46.85-9.46S121.36,9.25,122.89,13.8Z" fill="none" stroke="#3a1772" stroke-linecap="round" stroke-linejoin="round" stroke-width="2.97"/><path d="M122.67,13.2a15.43,15.43,0,0,1,5.24-4.26s2.21,5,.52,9.49a10.15,10.15,0,0,1-1.16,2.17" fill="none" stroke="#3a1772" stroke-linecap="round" stroke-linejoin="round" stroke-width="2.97"/><line x1="120.99" y1="22.64" x2="120.99" y2="22.63" fill="none" stroke="#3a1772" stroke-linecap="round" stroke-linejoin="round" stroke-width="2.97"/></g></svg>