<svg xmlns="http://www.w3.org/2000/svg" viewBox="0 0 90.85 124.17"><title>fsg</title><g id="SIDE_CONFETTI" data-name="SIDE CONFETTI"><path d="M83.78,76.09c3.87,22.21-11.55,43.44-34.43,47.43S4.77,112.73.9,90.53A57.51,57.51,0,0,1,5.11,56.59c4.1-9.09,6.74-44.82,24.24-47.86,20-3.47,31.64,31.22,39.82,38C78,54,81.84,65,83.78,76.09Z" fill="#fe0"/><ellipse cx="42.1" cy="81.93" rx="16.05" ry="19.78" transform="translate(-13.43 8.44) rotate(-9.88)" fill="#fe0"/><path d="M87.78,70.09c3.87,22.21-11.55,43.44-34.43,47.43S8.77,106.73,4.9,84.53A57.51,57.51,0,0,1,9.11,50.59c4.1-9.09,6.74-44.82,24.24-47.86C53.3-.75,65,33.95,73.17,40.7,82,48,85.84,59,87.78,70.09Z" fill="none" stroke="#3a1772" stroke-linecap="round" stroke-linejoin="round" stroke-width="4.96"/><ellipse cx="46.1" cy="75.93" rx="16.05" ry="19.78" transform="translate(-12.34 9.03) rotate(-9.88)" fill="none" stroke="#3a1772" stroke-linecap="round" stroke-linejoin="round" stroke-width="4.96"/></g></svg>