<svg xmlns="http://www.w3.org/2000/svg" viewBox="0 0 64.85 161.49"><title>fsg</title><g id="SIDE_CONFETTI" data-name="SIDE CONFETTI"><path d="M38.27,102.58l8.22.53a.36.36,0,0,1,.25.59l-5.42,6.2a.36.36,0,0,0-.08.32l2,8a.36.36,0,0,1-.49.42l-7.57-3.23a.36.36,0,0,0-.33,0l-7,4.4a.36.36,0,0,1-.55-.33l.74-8.2A.36.36,0,0,0,28,111l-6.34-5.26a.36.36,0,0,1,.15-.62l8-1.83a.36.36,0,0,0,.25-.22l3-7.65a.36.36,0,0,1,.64-.05L38,102.4A.36.36,0,0,0,38.27,102.58Z" fill="#4c52a2"/><path d="M10.87,65.29A26.08,26.08,0,0,0,6,83.12l7.17,75.11a3.37,3.37,0,0,0,3.47,3.24L62,157.14a3.37,3.37,0,0,0,2.79-3.84L57.65,78.18a26.08,26.08,0,0,0-8.16-16.58l-2.16-2a28.69,28.69,0,0,1-9-18.24L35.18,8.12A27.85,27.85,0,0,1,25.1,10.71a28.23,28.23,0,0,1-10.29-.59L18,43.29A28.69,28.69,0,0,1,12.61,62.9Z" fill="#47fbe0"/><rect x="8.45" y="88.39" width="51.89" height="38.47" transform="translate(-10.08 3.76) rotate(-5.46)" fill="#7348f8"/><ellipse cx="24.93" cy="7.62" rx="11.05" ry="3.26" transform="translate(-0.61 2.4) rotate(-5.46)" fill="#47fbe0"/><path d="M34,100l8.22.53a.36.36,0,0,1,.25.59l-5.42,6.2a.36.36,0,0,0-.08.32l2,8a.36.36,0,0,1-.49.42L31,112.78a.36.36,0,0,0-.33,0l-7,4.4a.36.36,0,0,1-.55-.33l.74-8.2a.36.36,0,0,0-.13-.31l-6.34-5.26a.36.36,0,0,1,.15-.62l8-1.83a.36.36,0,0,0,.25-.22l3-7.65a.36.36,0,0,1,.64-.05l4.23,7.07A.36.36,0,0,0,34,100Z" fill="#ffe904" stroke="#3a1772" stroke-linecap="round" stroke-linejoin="round" stroke-width="3.22"/><path d="M6.61,62.69A26.08,26.08,0,0,0,1.73,80.52L8.9,155.63a3.37,3.37,0,0,0,3.47,3.24l45.4-4.34a3.37,3.37,0,0,0,2.79-3.84L53.39,75.58A26.08,26.08,0,0,0,45.23,59l-2.16-2a28.69,28.69,0,0,1-9-18.24L30.92,5.52A27.85,27.85,0,0,1,20.83,8.11a28.23,28.23,0,0,1-10.29-.59l3.17,33.17A28.69,28.69,0,0,1,8.35,60.3Z" fill="none" stroke="#3a1772" stroke-linecap="round" stroke-linejoin="round" stroke-width="3.22"/><rect x="4.19" y="85.79" width="51.89" height="38.47" transform="translate(-9.85 3.34) rotate(-5.46)" fill="none" stroke="#3a1772" stroke-linecap="round" stroke-linejoin="round" stroke-width="3.22"/><ellipse cx="20.67" cy="5.02" rx="11.05" ry="3.26" transform="translate(-0.38 1.99) rotate(-5.46)" fill="none" stroke="#3a1772" stroke-linecap="round" stroke-linejoin="round" stroke-width="3.22"/></g></svg>