<svg xmlns="http://www.w3.org/2000/svg" viewBox="0 0 300 190"><title>cheaper-than-tacos</title><g id="SIDE_CONFETTI" data-name="SIDE CONFETTI"><path d="M204,144.88c-5.47-2.43-8-14.39-6.94-17.79s-2.37-11.21-7.6-13.6-14.47-5.86-16.64-9.85S161.88,97,157.48,99s-14.08-3.28-16.6-5.17S126,96.56,124.46,99.51s-11.95,6.09-16.84,6.28-10.35,8.54-10.35,12.49-5.47,12.3-11.79,15.46,6.78,12.11,6.78,12.11l103.85,18.88h0C201.29,161.11,209.5,147.31,204,144.88Z" fill="#fe0"/><path d="M210.14,151.39a4.47,4.47,0,0,0-2.66-3.93c-4.58-2-7-13.14-6.11-16,1.33-4.23-2.66-12.79-8.41-15.42-.82-.37-1.73-.77-2.7-1.2-4.64-2-11.65-5.09-13.24-8-2.55-4.69-12.27-7.63-17.34-5.23-3.33,1.57-12.18-2.86-15.06-5-1.18-.88-3.23-1-6.27-.3-4.27,1-10.95,3.73-12.37,6.44-1.05,2-10.37,5.28-15.57,5.48-5.73.22-11.79,9.26-11.79,14,0,3.33-5,11.15-11,14.12a4.1,4.1,0,0,0-2.54,3.46c-.31,4.54,7.57,10.16,9.15,11.24h0l.21.11.06,0a1.51,1.51,0,0,0,.3.09l103.85,18.88.27,0h0a1.49,1.49,0,0,0,.45-.08l.16-.08a1.47,1.47,0,0,0,.22-.11l.09-.07h0C204.28,166.69,210.69,157.07,210.14,151.39ZM88.09,140c0-.16,0-.55.89-1,6.68-3.34,12.62-12.18,12.62-16.81,0-3.34,5.08-10.84,8.91-11,4.36-.17,16-3.1,18.11-7.08.61-1.16,5-3.52,9.54-4.71,3.09-.81,4.43-.58,4.65-.43,1.77,1.33,12.63,7.94,18.15,5.33,3.6-1.7,11.63.66,13.42,4,2.08,3.82,9.06,6.87,14.67,9.32,1,.42,1.85.81,2.66,1.18,4.56,2.08,7.65,9.06,6.79,11.78-1.25,4,1.34,16.76,7.76,19.61.37.16.8.48.89,1.48.3,3.13-2.87,9.09-6.14,13A54.27,54.27,0,0,0,94.1,147.21C91.16,144.9,88,141.72,88.09,140Zm109.63,26.93-68.88-12.52-32-5.81a51.28,51.28,0,0,1,100.86,18.33Z" fill="#3a1772"/><path d="M164.69,86.87l-.27,0a1.5,1.5,0,0,1-1.21-1.74l8.22-45.58a1.5,1.5,0,1,1,3,.53l-8.22,45.58A1.5,1.5,0,0,1,164.69,86.87Z" fill="#3a1772"/><path d="M85.16,117.69a1.49,1.49,0,0,1-.85-.27L39.65,86.62a1.5,1.5,0,1,1,1.7-2.47L86,115a1.5,1.5,0,0,1-.85,2.73Z" fill="#3a1772"/><path d="M122.36,87.29a1.5,1.5,0,0,1-1.37-.88L103.38,47.7a1.5,1.5,0,1,1,2.73-1.24l17.61,38.72a1.5,1.5,0,0,1-1.36,2.12Z" fill="#3a1772"/><path d="M105.21,141a3,3,0,1,0,2,1.26A3,3,0,0,0,105.21,141Z" fill="#3a1772"/><path d="M115.06,129.58a3,3,0,1,0-1.08,6,3.08,3.08,0,0,0,.54,0,3,3,0,0,0,.54-6Z" fill="#3a1772"/><path d="M122.56,142.55a3,3,0,1,0-1.08,6,3.08,3.08,0,0,0,.54,0,3,3,0,0,0,3-2.49h0A3,3,0,0,0,122.56,142.55Z" fill="#3a1772"/><path d="M130.95,130.91a3,3,0,0,0-1.08,6,3.08,3.08,0,0,0,.54,0,3,3,0,0,0,.54-6Z" fill="#3a1772"/><path d="M128.21,122a3,3,0,1,0-1.26,2A3,3,0,0,0,128.21,122Z" fill="#3a1772"/><path d="M144,118.66h0a3,3,0,1,0-1.26,2A3,3,0,0,0,144,118.66Z" fill="#3a1772"/><path d="M148.2,130.5a3,3,0,1,0-1.26,2A3,3,0,0,0,148.2,130.5Z" fill="#3a1772"/><path d="M157.32,119.53a3,3,0,1,0-3,2.49,3,3,0,0,0,3-2.49Z" fill="#3a1772"/><path d="M163.19,131.67h0a3,3,0,0,0-2.44-3.52,3,3,0,0,0-3.53,2.44,3,3,0,0,0,2.44,3.53,3.07,3.07,0,0,0,.55,0,3,3,0,0,0,3-2.49Z" fill="#3a1772"/><path d="M171.56,128.31a3,3,0,1,0-2-1.26A3,3,0,0,0,171.56,128.31Z" fill="#3a1772"/><path d="M136.64,142a3,3,0,1,0,2.44,3.53A3,3,0,0,0,136.64,142Z" fill="#3a1772"/><path d="M150.94,137.66a3,3,0,1,0,2.44,3.53h0A3,3,0,0,0,150.94,137.66Z" fill="#3a1772"/><path d="M174.1,139.85a3,3,0,1,0-3.53,2.44,3,3,0,0,0,3.53-2.44Z" fill="#3a1772"/><path d="M164.42,148.61a3,3,0,1,0,2.44,3.53h0a3,3,0,0,0-2.44-3.53Z" fill="#3a1772"/><path d="M148.9,148.9a3,3,0,1,0-1.08,6,3,3,0,0,0,3.53-2.44,3,3,0,0,0-2.44-3.53Z" fill="#3a1772"/><path d="M176,152.27a3,3,0,1,0-1.08,6,3.08,3.08,0,0,0,.54,0,3,3,0,0,0,3-2.49h0A3,3,0,0,0,176,152.27Z" fill="#3a1772"/><path d="M182.85,143.46a3,3,0,1,0,2.44,3.53h0A3,3,0,0,0,182.85,143.46Z" fill="#3a1772"/><path d="M183.61,130.74a3,3,0,1,0,2.44,3.53h0a3,3,0,0,0-2.44-3.53Z" fill="#3a1772"/><path d="M190,153.25a3,3,0,1,0,2.44,3.53h0A3,3,0,0,0,190,153.25Z" fill="#3a1772"/><path d="M235.18,68a1.5,1.5,0,0,0-2.12,0L197.66,103a1.5,1.5,0,1,0,2.11,2.13l35.4-34.94A1.5,1.5,0,0,0,235.18,68Z" fill="#3a1772"/><path d="M222.52,145.18a1.5,1.5,0,0,1-.39-2.95l39.78-10.66a1.5,1.5,0,0,1,.78,2.9l-39.78,10.66A1.5,1.5,0,0,1,222.52,145.18Z" fill="#3a1772"/><path d="M270.35,132.11a1.5,1.5,0,0,1-.38-3l9.88-2.6a1.5,1.5,0,0,1,.76,2.9l-9.88,2.6A1.49,1.49,0,0,1,270.35,132.11Z" fill="#3a1772"/><path d="M174.7,34.57l-.26,0a1.5,1.5,0,0,1-1.22-1.74l1.92-10.88a1.5,1.5,0,1,1,3,.52l-1.92,10.88A1.5,1.5,0,0,1,174.7,34.57Z" fill="#3a1772"/><path d="M101.16,42.44a1.5,1.5,0,0,1-1.34-.82L94.65,31.5a1.5,1.5,0,0,1,2.67-1.37l5.17,10.12a1.5,1.5,0,0,1-1.33,2.18Z" fill="#3a1772"/><path d="M240.09,65.52A1.5,1.5,0,0,1,239,63l7.52-7.33a1.5,1.5,0,0,1,2.09,2.15l-7.52,7.33A1.5,1.5,0,0,1,240.09,65.52Z" fill="#3a1772"/><path d="M35,84.21a1.5,1.5,0,0,1-.9-.3L24.93,77a1.5,1.5,0,0,1,1.81-2.4l9.14,6.89a1.5,1.5,0,0,1-.9,2.7Z" fill="#3a1772"/></g></svg>