<svg xmlns="http://www.w3.org/2000/svg" viewBox="0 0 450.55 326.84"><title>fsg</title><g id="Layer_2" data-name="Layer 2"><path d="M48.38,37.74C45,34.74,73.8,62,105.69,64.27" fill="#e928b7"/><path d="M52.94,28.81S92,53.31,104.66,53.07" fill="#e928b7"/><path d="M57,19.34S82,38.08,105.09,42.06" fill="#e928b7"/><path d="M107.93,26.11s-8.31,27.61,1.33,48.72c5.47,12,10.62,21.38,14.06,27.31a15,15,0,0,1,.3,14.54l-3.09,5.86" fill="#e928b7"/><path d="M28.14,66S10.76,71.44,15.46,89c0,0-.68,1.81,8,6.57S117,145.51,117,145.51s42.23,20.63,67.65,26.61a15.76,15.76,0,0,0,18.46-9.45c1.38-3.68,1.11-7.58-3.5-10.48" fill="#fff"/><path d="M75.26,105.37c53.64,26.39,63.66,33.17,79.27,40s46.71,13.87,49.11,12.11" fill="#e928b7"/><circle cx="114.51" cy="42.55" r="2.74" transform="translate(22.03 122.37) rotate(-61.18)" fill="#e928b7"/><circle cx="115.27" cy="55.95" r="2.74" transform="translate(10.68 129.97) rotate(-61.18)" fill="#e928b7"/><circle cx="117.67" cy="68.06" r="2.74" transform="translate(1.32 138.35) rotate(-61.18)" fill="#e928b7"/><circle cx="120.6" cy="80.93" r="2.74" transform="translate(-8.44 147.57) rotate(-61.18)" fill="#e928b7"/><circle cx="125.96" cy="92.46" r="2.74" transform="matrix(0.48, -0.88, 0.88, 0.48, -15.77, 158.24)" fill="#e928b7"/><circle cx="134.25" cy="103.28" r="2.74" transform="translate(-20.95 171.11) rotate(-61.18)" fill="#e928b7"/><circle cx="143.38" cy="112.83" r="2.74" transform="translate(-24.6 184.06) rotate(-61.18)" fill="#e928b7"/><circle cx="153.53" cy="121.08" r="2.74" transform="translate(-26.56 197.22) rotate(-61.18)" fill="#e928b7"/><path d="M162.65,143.81,105.92,24.64c2.75,1.23,10.38-4.69,13.58-7.34a2.85,2.85,0,0,1,1.79-.64,2.82,2.82,0,0,1,2.66,1.89c1.75,5,9.2,27,8,33.27-1.38,7,12.55,36.29,12.55,36.29l16.78,31.43C169.87,131.16,162.65,143.81,162.65,143.81Z" fill="#ffe904"/><line x1="114.51" y1="42.55" x2="130.51" y2="40.34" fill="#e928b7"/><line x1="115.27" y1="55.95" x2="131.86" y2="53.8" fill="#e928b7"/><line x1="117.67" y1="68.06" x2="135.06" y2="65.77" fill="#e928b7"/><line x1="120.6" y1="80.93" x2="139.53" y2="77.08" fill="#e928b7"/><line x1="125.96" y1="92.46" x2="144.47" y2="88.11" fill="#e928b7"/><line x1="134.25" y1="103.28" x2="149.97" y2="98.41" fill="#e928b7"/><line x1="143.38" y1="112.83" x2="155.08" y2="107.98" fill="#e928b7"/><line x1="153.53" y1="121.08" x2="160.19" y2="117.55" fill="#e928b7"/><path d="M107.93,26.11l-38.25-21a5.05,5.05,0,0,0-7,2.27" fill="#e928b7"/><path d="M107.93,26.11l-38.25-21a5.05,5.05,0,0,0-7,2.27l-14.3,30.4h0a4.11,4.11,0,0,0-5.58,1.62L28.14,66s-4.08,4,19.29,17.49,105.92,56.09,105.92,56.09,35.05,15.85,46.21,12.61c0,0-1.51-11.46-38.31-32.65a94.5,94.5,0,0,1-33-42.86s-8-17.23-6.88-36.93C121.37,39.76,120.13,30.63,107.93,26.11Z" fill="#ff39e7"/><path d="M226.12,296.23l5.06.22-2.77-11.27c-6.78-32.57,18.78-46.06,18.78-46.06L233.1,227.65l-20.27,39.11Z" fill="#47fbe0"/><path d="M376.84,181.18,332,201.82l7.71,22,20.91-15.29c9.56-7,33.06-4.37,33.06-4.37Z" fill="#47fbe0"/><path d="M237.39,236.1s49,19.36,76.15,0c0,0,7.74,45.17,7.1,61.31h18.07s-16.13-36.78,0-82c0,0,22.59-31,38.08-24.52l36.14,36.14,14.2-7.74-12.26-55.5,11.4-21.14a2.38,2.38,0,0,0-3.57-3l-30.42,24.13H229.13a27.4,27.4,0,0,0-8.49,1.3c-8.78,2.86-23.86,11.71-15.44,38.07,0,0,17.44,25.14-1,52.11a6.78,6.78,0,0,0-1.13,4.77l5.26,37.35h14.2s-14.84-33.56,14.84-61.31c0,0,24.52-14.2,13.55-36.14Z" fill="#47fbe0"/><line x1="425.57" y1="148.33" x2="414.59" y2="162.53" fill="#c53f96" stroke="#0f1e3d" stroke-miterlimit="10" stroke-width="0.8"/><polygon points="317.15 236.1 313.5 297.41 324.25 297.41 317.15 236.1" fill="#47fbe0" stroke="#0f1e3d" stroke-miterlimit="10" stroke-width="0.8"/><line x1="314.31" y1="283.88" x2="323.67" y2="283.88" fill="none" stroke="#3a1772" stroke-miterlimit="10" stroke-width="0.8"/><line x1="339.66" y1="289.63" x2="324.25" y2="289.63" fill="none" stroke="#3a1772" stroke-miterlimit="10" stroke-width="0.8"/><line x1="210.6" y1="287.78" x2="223.43" y2="287.78" fill="none" stroke="#3a1772" stroke-miterlimit="10" stroke-width="0.8"/><line x1="227.12" y1="283.88" x2="223.43" y2="283.88" fill="none" stroke="#3a1772" stroke-miterlimit="10" stroke-width="0.8"/><line x1="405.67" y1="185.12" x2="416.21" y2="185.12" fill="none" stroke="#3a1772" stroke-miterlimit="10" stroke-width="0.8"/><circle cx="428.35" cy="218.28" r="1.91" fill="#c53f96" stroke="#0f1e3d" stroke-miterlimit="10" stroke-width="0.8"/><circle cx="412.85" cy="187.03" r="1.91" fill="#c53f96" stroke="#0f1e3d" stroke-miterlimit="10" stroke-width="0.8"/><line x1="414.55" y1="216.74" x2="420.27" y2="225.03" fill="none" stroke="#3a1772" stroke-miterlimit="10" stroke-width="0.8"/><path d="M426.82,148.33l10.12-1.23a.89.89,0,0,1,.66,1.58l-19.13,15.14Z" fill="#47fbe0" stroke="#0f1e3d" stroke-miterlimit="10" stroke-width="0.8"/><line x1="339.66" y1="162.53" x2="339.66" y2="151.24" fill="none" stroke="#3a1772" stroke-miterlimit="10" stroke-width="0.8"/><line x1="402.66" y1="144.81" x2="408.79" y2="151.24" fill="none" stroke="#3a1772" stroke-miterlimit="10" stroke-width="0.8"/><line x1="397.17" y1="146.73" x2="405.67" y2="155.46" fill="none" stroke="#3a1772" stroke-miterlimit="10" stroke-width="0.8"/><line x1="392.33" y1="149.16" x2="399.75" y2="158.79" fill="none" stroke="#3a1772" stroke-miterlimit="10" stroke-width="0.8"/><line x1="387.81" y1="151.05" x2="395.88" y2="163.82" fill="none" stroke="#3a1772" stroke-miterlimit="10" stroke-width="0.8"/><line x1="382.65" y1="152.34" x2="387.81" y2="163.82" fill="none" stroke="#3a1772" stroke-miterlimit="10" stroke-width="0.8"/><line x1="376.84" y1="152.34" x2="380.39" y2="162.53" fill="none" stroke="#3a1772" stroke-miterlimit="10" stroke-width="0.8"/><line x1="371.36" y1="152.34" x2="374.26" y2="163.82" fill="none" stroke="#3a1772" stroke-miterlimit="10" stroke-width="0.8"/><line x1="366.64" y1="163.82" x2="365.87" y2="152.53" fill="none" stroke="#3a1772" stroke-miterlimit="10" stroke-width="0.8"/><line x1="359.74" y1="163.82" x2="359.74" y2="152.21" fill="none" stroke="#3a1772" stroke-miterlimit="10" stroke-width="0.8"/><line x1="354.58" y1="163.82" x2="354.58" y2="152.21" fill="none" stroke="#3a1772" stroke-miterlimit="10" stroke-width="0.8"/><line x1="348.77" y1="163.82" x2="348.77" y2="152.21" fill="none" stroke="#3a1772" stroke-miterlimit="10" stroke-width="0.8"/><line x1="344.25" y1="163.82" x2="344.25" y2="152.21" fill="none" stroke="#3a1772" stroke-miterlimit="10" stroke-width="0.8"/><line x1="205.23" y1="239.11" x2="200.27" y2="230.94" fill="none" stroke="#3a1772" stroke-miterlimit="10" stroke-width="0.8"/><path d="M53.38,38.74C50,35.74,78.8,63,110.69,65.27" fill="none" stroke="#3a1772" stroke-linecap="round" stroke-linejoin="round" stroke-width="3.21"/><path d="M57.94,29.81S97,54.31,109.66,54.07" fill="none" stroke="#3a1772" stroke-linecap="round" stroke-linejoin="round" stroke-width="3.21"/><path d="M62,20.34S87,39.08,110.09,43.06" fill="none" stroke="#3a1772" stroke-linecap="round" stroke-linejoin="round" stroke-width="3.21"/><path d="M112.93,27.11s-8.31,27.61,1.33,48.72c5.47,12,10.62,21.38,14.06,27.31a15,15,0,0,1,.3,14.54l-3.09,5.86" fill="none" stroke="#3a1772" stroke-linecap="round" stroke-linejoin="round" stroke-width="3.21"/><path d="M33.14,67S15.76,72.44,20.46,90c0,0-.68,1.81,8,6.57S122,146.51,122,146.51s42.23,20.63,67.65,26.61a15.76,15.76,0,0,0,18.46-9.45c1.38-3.68,1.11-7.58-3.5-10.48" fill="none" stroke="#3a1772" stroke-linecap="round" stroke-linejoin="round" stroke-width="3.21"/><path d="M27.75,69.74S26.62,80,80.26,106.37s63.66,33.17,79.27,40,46.71,13.87,49.11,12.11" fill="none" stroke="#3a1772" stroke-linecap="round" stroke-linejoin="round" stroke-width="3.21"/><circle cx="119.51" cy="43.55" r="2.74" transform="translate(23.74 127.26) rotate(-61.18)" fill="none" stroke="#3a1772" stroke-linecap="round" stroke-linejoin="round" stroke-width="3.21"/><circle cx="120.27" cy="56.95" r="2.74" transform="translate(12.4 134.87) rotate(-61.18)" fill="none" stroke="#3a1772" stroke-linecap="round" stroke-linejoin="round" stroke-width="3.21"/><circle cx="122.67" cy="69.06" r="2.74" transform="translate(3.03 143.25) rotate(-61.18)" fill="none" stroke="#3a1772" stroke-linecap="round" stroke-linejoin="round" stroke-width="3.21"/><circle cx="125.6" cy="81.93" r="2.74" transform="translate(-6.73 152.47) rotate(-61.18)" fill="none" stroke="#3a1772" stroke-linecap="round" stroke-linejoin="round" stroke-width="3.21"/><circle cx="130.96" cy="93.46" r="2.74" transform="matrix(0.48, -0.88, 0.88, 0.48, -14.06, 163.14)" fill="none" stroke="#3a1772" stroke-linecap="round" stroke-linejoin="round" stroke-width="3.21"/><circle cx="139.25" cy="104.28" r="2.74" transform="translate(-19.24 176.01) rotate(-61.18)" fill="none" stroke="#3a1772" stroke-linecap="round" stroke-linejoin="round" stroke-width="3.21"/><circle cx="148.38" cy="113.83" r="2.74" transform="translate(-22.89 188.95) rotate(-61.18)" fill="none" stroke="#3a1772" stroke-linecap="round" stroke-linejoin="round" stroke-width="3.21"/><circle cx="158.53" cy="122.08" r="2.74" transform="translate(-24.85 202.12) rotate(-61.18)" fill="none" stroke="#3a1772" stroke-linecap="round" stroke-linejoin="round" stroke-width="3.21"/><path d="M167.64,144.81s7.23-12.64-1.39-24.26L149.47,89.11s-13.93-29.24-12.55-36.29c1.22-6.24-6.23-28.25-8-33.27a2.81,2.81,0,0,0-1.3-1.54h0a2.81,2.81,0,0,0-3.15.29c-3.21,2.65-10.84,8.56-13.58,7.34" fill="none" stroke="#3a1772" stroke-linecap="round" stroke-linejoin="round" stroke-width="3.21"/><line x1="119.51" y1="43.55" x2="135.51" y2="41.34" fill="none" stroke="#3a1772" stroke-linecap="round" stroke-linejoin="round" stroke-width="3.21"/><line x1="120.27" y1="56.95" x2="136.86" y2="54.8" fill="none" stroke="#3a1772" stroke-linecap="round" stroke-linejoin="round" stroke-width="3.21"/><line x1="122.67" y1="69.06" x2="140.06" y2="66.77" fill="none" stroke="#3a1772" stroke-linecap="round" stroke-linejoin="round" stroke-width="3.21"/><line x1="125.6" y1="81.93" x2="144.53" y2="78.08" fill="none" stroke="#3a1772" stroke-linecap="round" stroke-linejoin="round" stroke-width="3.21"/><line x1="130.96" y1="93.46" x2="149.47" y2="89.11" fill="none" stroke="#3a1772" stroke-linecap="round" stroke-linejoin="round" stroke-width="3.21"/><line x1="139.25" y1="104.28" x2="154.97" y2="99.41" fill="none" stroke="#3a1772" stroke-linecap="round" stroke-linejoin="round" stroke-width="3.21"/><line x1="148.38" y1="113.83" x2="160.08" y2="108.98" fill="none" stroke="#3a1772" stroke-linecap="round" stroke-linejoin="round" stroke-width="3.21"/><line x1="158.53" y1="122.08" x2="165.19" y2="118.55" fill="none" stroke="#3a1772" stroke-linecap="round" stroke-linejoin="round" stroke-width="3.21"/><path d="M112.93,27.11l-38.25-21a5.05,5.05,0,0,0-7,2.27" fill="none" stroke="#3a1772" stroke-linecap="round" stroke-linejoin="round" stroke-width="3.21"/><path d="M112.93,27.11l-38.25-21a5.05,5.05,0,0,0-7,2.27l-14.3,30.4h0a4.11,4.11,0,0,0-5.58,1.62L33.14,67s-4.08,4,19.29,17.49,105.92,56.09,105.92,56.09,35.05,15.85,46.21,12.61c0,0-1.51-11.46-38.31-32.65a94.5,94.5,0,0,1-33-42.86s-8-17.23-6.88-36.93C126.37,40.76,125.13,31.63,112.93,27.11Z" fill="none" stroke="#3a1772" stroke-linecap="round" stroke-linejoin="round" stroke-width="3.21"/><path d="M136.92,52.82c1.22-6.24-6.23-28.25-8-33.27" fill="none" stroke="#3a1772" stroke-linecap="round" stroke-linejoin="round" stroke-width="3.21"/><path d="M241,236.1s49,19.36,76.15,0c0,0,7.74,45.17,7.1,61.31h18.07s-16.13-36.78,0-82c0,0,22.59-31,38.08-24.52l36.14,36.14,14.2-7.74-12.26-55.5,11.4-21.14a2.38,2.38,0,0,0-3.57-3l-30.42,24.13H232.73a27.4,27.4,0,0,0-8.49,1.3c-8.78,2.86-23.86,11.71-15.44,38.07,0,0,17.52,25.25-1.09,52.29a6.19,6.19,0,0,0-1,4.37L212,297.41h14.2S211.31,263.85,241,236.1c0,0,24.52-14.2,13.55-36.14" fill="none" stroke="#3a1772" stroke-linecap="round" stroke-linejoin="round" stroke-width="3.21"/><path d="M402.66,213.19s8.52-12,23.78-13.28" fill="none" stroke="#3a1772" stroke-linecap="round" stroke-linejoin="round" stroke-width="3.21"/><path d="M414.59,162.53s4.91-10.15,13.09-15.8" fill="none" stroke="#3a1772" stroke-linecap="round" stroke-linejoin="round" stroke-width="3.21"/><path d="M339.66,223.82l20.91-15.29a34.77,34.77,0,0,1,33.06-4.37h0" fill="none" stroke="#3a1772" stroke-linecap="round" stroke-linejoin="round" stroke-width="3.21"/><polyline points="317.15 236.1 313.5 297.41 324.25 297.41" fill="none" stroke="#3a1772" stroke-linecap="round" stroke-linejoin="round" stroke-width="3.21"/><line x1="314.31" y1="283.88" x2="323.67" y2="283.88" fill="none" stroke="#3a1772" stroke-linecap="round" stroke-linejoin="round" stroke-width="3.21"/><line x1="339.66" y1="289.63" x2="324.25" y2="289.63" fill="none" stroke="#3a1772" stroke-linecap="round" stroke-linejoin="round" stroke-width="3.21"/><line x1="210.6" y1="287.78" x2="223.43" y2="287.78" fill="none" stroke="#3a1772" stroke-linecap="round" stroke-linejoin="round" stroke-width="3.21"/><path d="M247.19,239.11s-25.55,13.49-18.78,46.06l2.77,11.27-5.06-.22" fill="none" stroke="#3a1772" stroke-linecap="round" stroke-linejoin="round" stroke-width="3.21"/><line x1="227.12" y1="283.88" x2="223.43" y2="283.88" fill="none" stroke="#3a1772" stroke-linecap="round" stroke-linejoin="round" stroke-width="3.21"/><path d="M199,241.26l.72-8.6c-3.87-55.07,9.21-56.58,9.21-56.58" fill="none" stroke="#3a1772" stroke-linecap="round" stroke-linejoin="round" stroke-width="3.21"/><line x1="405.67" y1="185.12" x2="416.21" y2="185.12" fill="none" stroke="#3a1772" stroke-linecap="round" stroke-linejoin="round" stroke-width="3.21"/><circle cx="428.35" cy="218.28" r="1.91" fill="none" stroke="#3a1772" stroke-linecap="round" stroke-linejoin="round" stroke-width="3.21"/><circle cx="412.85" cy="187.03" r="1.91" fill="#3a1772" stroke="#3a1772" stroke-linecap="round" stroke-linejoin="round" stroke-width="3.21"/><line x1="414.55" y1="216.74" x2="420.27" y2="225.03" fill="none" stroke="#3a1772" stroke-linecap="round" stroke-linejoin="round" stroke-width="3.21"/><path d="M426.82,148.33l10.12-1.23a.89.89,0,0,1,.66,1.58l-19.13,15.14" fill="none" stroke="#3a1772" stroke-linecap="round" stroke-linejoin="round" stroke-width="3.21"/><line x1="339.66" y1="162.53" x2="339.66" y2="151.24" fill="none" stroke="#3a1772" stroke-linecap="round" stroke-linejoin="round" stroke-width="3.21"/><line x1="402.66" y1="144.81" x2="408.79" y2="151.24" fill="none" stroke="#3a1772" stroke-linecap="round" stroke-linejoin="round" stroke-width="3.21"/><line x1="397.17" y1="146.73" x2="405.67" y2="155.46" fill="none" stroke="#3a1772" stroke-linecap="round" stroke-linejoin="round" stroke-width="3.21"/><line x1="392.33" y1="149.16" x2="399.75" y2="158.79" fill="none" stroke="#3a1772" stroke-linecap="round" stroke-linejoin="round" stroke-width="3.21"/><line x1="387.81" y1="151.05" x2="395.88" y2="163.82" fill="none" stroke="#3a1772" stroke-linecap="round" stroke-linejoin="round" stroke-width="3.21"/><line x1="382.65" y1="152.34" x2="387.81" y2="163.82" fill="none" stroke="#3a1772" stroke-linecap="round" stroke-linejoin="round" stroke-width="3.21"/><line x1="376.84" y1="152.34" x2="380.39" y2="162.53" fill="none" stroke="#3a1772" stroke-linecap="round" stroke-linejoin="round" stroke-width="3.21"/><line x1="371.36" y1="152.34" x2="374.26" y2="163.82" fill="none" stroke="#3a1772" stroke-linecap="round" stroke-linejoin="round" stroke-width="3.21"/><line x1="366.64" y1="163.82" x2="365.87" y2="152.53" fill="none" stroke="#3a1772" stroke-linecap="round" stroke-linejoin="round" stroke-width="3.21"/><line x1="359.74" y1="163.82" x2="359.74" y2="152.21" fill="none" stroke="#3a1772" stroke-linecap="round" stroke-linejoin="round" stroke-width="3.21"/><line x1="354.58" y1="163.82" x2="354.58" y2="152.21" fill="none" stroke="#3a1772" stroke-linecap="round" stroke-linejoin="round" stroke-width="3.21"/><line x1="348.77" y1="163.82" x2="348.77" y2="152.21" fill="none" stroke="#3a1772" stroke-linecap="round" stroke-linejoin="round" stroke-width="3.21"/><line x1="344.25" y1="163.82" x2="344.25" y2="152.21" fill="none" stroke="#3a1772" stroke-linecap="round" stroke-linejoin="round" stroke-width="3.21"/><line x1="205.23" y1="239.11" x2="200.27" y2="230.94" fill="none" stroke="#3a1772" stroke-linecap="round" stroke-linejoin="round" stroke-width="3.21"/><line x1="180.61" y1="297.41" x2="382.65" y2="297.41" fill="none" stroke="#3a1772" stroke-linecap="round" stroke-linejoin="round" stroke-width="3.21"/><line x1="165.19" y1="306.38" x2="354.58" y2="306.38" fill="none" stroke="#3a1772" stroke-linecap="round" stroke-linejoin="round" stroke-width="3.21"/><line x1="217.01" y1="147.09" x2="208.65" y2="107.02" fill="none" stroke="#3a1772" stroke-linecap="round" stroke-linejoin="round" stroke-width="3.21"/><line x1="225.27" y1="149.16" x2="265.8" y2="99.41" fill="none" stroke="#3a1772" stroke-linecap="round" stroke-linejoin="round" stroke-width="3.21"/><line x1="233.1" y1="153.97" x2="270.1" y2="144.81" fill="none" stroke="#3a1772" stroke-linecap="round" stroke-linejoin="round" stroke-width="3.21"/><line x1="206.32" y1="99.41" x2="202.75" y2="81.93" fill="none" stroke="#3a1772" stroke-linecap="round" stroke-linejoin="round" stroke-width="3.21"/><line x1="271.9" y1="91.29" x2="283.43" y2="78.08" fill="none" stroke="#3a1772" stroke-linecap="round" stroke-linejoin="round" stroke-width="3.21"/><line x1="275.87" y1="142.78" x2="287.52" y2="139.16" fill="none" stroke="#3a1772" stroke-linecap="round" stroke-linejoin="round" stroke-width="3.21"/><line x1="366.25" y1="306.38" x2="403.1" y2="306.38" fill="none" stroke="#3a1772" stroke-linecap="round" stroke-linejoin="round" stroke-width="3.21"/></g></svg>