<svg xmlns="http://www.w3.org/2000/svg" viewBox="0 0 306.46 255.99"><title>fsg</title><g id="Layer_2" data-name="Layer 2"><path d="M189.44,95.29v62.4c0,19.72-16.83,35.76-37.52,35.76s-37.5-16-37.5-35.76V85.79A10.76,10.76,0,0,1,125.16,75h.71a10.76,10.76,0,0,1,10.74,10.75v20.66a10.71,10.71,0,0,1,15.2,2,10.73,10.73,0,0,1,15-2.16v-11a10.76,10.76,0,0,1,10.75-10.75h1.13A10.77,10.77,0,0,1,189.44,95.29Z" fill="#47fbe0"/><path d="M158.3,181.88a2.06,2.06,0,0,1-2.06-2.06v-6a2.06,2.06,0,0,1,4.12,0v6A2.06,2.06,0,0,1,158.3,181.88Z" fill="#3a1772"/><path d="M169,116.9v18.36h-.21v-20A6.29,6.29,0,0,1,169,116.9Z" fill="#3a1772"/><path d="M155.9,115.59a6.31,6.31,0,0,0-.13,1.31v18.36H156V116.9A11.43,11.43,0,0,0,155.9,115.59Z" fill="#3a1772"/><path d="M172.93,114.79v23.43a2,2,0,0,0,.21-.9V116.9A10.48,10.48,0,0,0,172.93,114.79Zm-21.19.77a9.94,9.94,0,0,0-.09,1.34v18.36h.22V116.9A7.41,7.41,0,0,0,151.74,115.56Z" fill="#3a1772"/><path d="M180.69,86.54h-1.13a10.76,10.76,0,0,0-10.75,10.75v11a10.73,10.73,0,0,0-15,2.16,10.71,10.71,0,0,0-15.2-2V87.79A10.76,10.76,0,0,0,127.87,77h-.71a10.76,10.76,0,0,0-10.74,10.75v71.9c0,19.72,16.82,35.76,37.5,35.76s37.52-16,37.52-35.76V97.29A10.77,10.77,0,0,0,180.69,86.54ZM155.77,116.9a6.31,6.31,0,0,1,.13-1.31,6.62,6.62,0,0,1,12.91-.33,6.29,6.29,0,0,1,.21,1.64v18.36H155.77Zm-17.16,0a6.63,6.63,0,0,1,13.13-1.35h0a7.41,7.41,0,0,1,.13,1.34v18.36H138.61ZM120.53,87.79a6.64,6.64,0,0,1,6.63-6.63h.71a6.63,6.63,0,0,1,6.62,6.63v47.47h-14Zm66.79,71.9c0,17.45-15,31.64-33.4,31.64s-33.39-14.19-33.39-31.64V139.38h48.28v4.54a8.81,8.81,0,0,1-8.8,8.8h-25.6a2.06,2.06,0,1,0,0,4.12h9.86c3.47,1.29,11.58,5.4,12,10.66a2.08,2.08,0,0,0,2.05,1.91h.16a2.06,2.06,0,0,0,1.9-2.21c-.34-4.48-3.77-7.94-7.26-10.35H160a12.93,12.93,0,0,0,12.92-12.92V97.29a6.63,6.63,0,0,1,6.63-6.63h1.13a6.64,6.64,0,0,1,6.63,6.63Z" fill="#3a1772"/><path d="M75.62,206.13l9.85-9.07q4.17-3.83,8.17-3.42a11.5,11.5,0,0,1,7.31,4,12.82,12.82,0,0,1,3.71,7.72,8.12,8.12,0,0,1-2.81,6.87,3,3,0,0,1-2.23,1.05A3.61,3.61,0,0,1,97.59,212q-2.06-2.24-.64-3.6a6.05,6.05,0,0,0,1.72-3.2q.26-1.66-1.57-3.65-3.38-3.67-7.44.07l-9.85,9.07q-4.06,3.74-.72,7.37a4.8,4.8,0,0,0,3.52,1.77A5.83,5.83,0,0,0,86.53,218l2.08-1.92L86,213.22a1.61,1.61,0,0,1-.42-1.52,3,3,0,0,1,.93-1.54,2.89,2.89,0,0,1,1.61-.77,1.61,1.61,0,0,1,1.48.51l5.47,5.94a1.79,1.79,0,0,1,.52,1.45,2.09,2.09,0,0,1-.69,1.34l-4.2,3.87q-4.2,3.87-8.2,3.42a12,12,0,0,1-7.44-4.19A11.86,11.86,0,0,1,71.52,214Q71.42,210,75.62,206.13Z" fill="#3a1772"/><path d="M108.79,234.85l8-21a1.54,1.54,0,0,1,1.36-1,5.21,5.21,0,0,1,4.08,1.56,1.55,1.55,0,0,1,.33,1.67l-8,21q-2,5.15,2.9,7t6.85-3.28l8-21a1.54,1.54,0,0,1,1.36-1,5.21,5.21,0,0,1,4.08,1.56,1.54,1.54,0,0,1,.33,1.67l-8,21q-2,5.29-5.89,6.66a14.27,14.27,0,0,1-15.48-5.91Q106.74,240.18,108.79,234.85Z" fill="#3a1772"/><path d="M151.62,254.07l-.49-31.2a1.54,1.54,0,0,1,.88-1.45,5.21,5.21,0,0,1,4.37-.07,1.54,1.54,0,0,1,.92,1.43l.49,31.2a1.61,1.61,0,0,1-.9,1.45,4.73,4.73,0,0,1-4.35.07A1.61,1.61,0,0,1,151.62,254.07Z" fill="#3a1772"/><path d="M182.53,250.72l-11.53-29a1.66,1.66,0,0,1,.21-1.53,3.13,3.13,0,0,1,1.6-1.25l7.81-3.1a12,12,0,0,1,8.52-.54q3.8,1.33,5.91,6.64l4.83,12.18q2.11,5.31.26,8.88a12,12,0,0,1-6.57,5.45l-7.81,3.1a3.13,3.13,0,0,1-2,.18A1.66,1.66,0,0,1,182.53,250.72Zm4.43-5.58,4.59-1.82q4.63-1.84,2.6-7l-4.83-12.18q-2-5.13-6.67-3.29l-4.59,1.82Z" fill="#3a1772"/><path d="M224.52,227.37l-22.89-21.13a1.64,1.64,0,0,1-.51-1.57,3.4,3.4,0,0,1,.9-1.75l11.47-12.42a1.6,1.6,0,0,1,1.58-.51,3.52,3.52,0,0,1,1.71.9,3.58,3.58,0,0,1,1.09,1.72,1.61,1.61,0,0,1-.37,1.6l-9.12,9.87,7.05,6.51,4.9-5.3a1.65,1.65,0,0,1,1.51-.54,3,3,0,0,1,1.64.8,2.91,2.91,0,0,1,.88,1.49,1.64,1.64,0,0,1-.44,1.57l-4.9,5.3,7.09,6.55,9.12-9.87a1.61,1.61,0,0,1,1.57-.49,3.58,3.58,0,0,1,1.8,1,3.52,3.52,0,0,1,1,1.64,1.6,1.6,0,0,1-.38,1.62L227.8,226.72a3.39,3.39,0,0,1-1.68,1A1.64,1.64,0,0,1,224.52,227.37Z" fill="#3a1772"/><path d="M66,76.68,43,56.59a1.6,1.6,0,0,1-.54-1.52,3.32,3.32,0,0,1,.84-1.74L54,41.12a1.52,1.52,0,0,1,1.5-.54,3.55,3.55,0,0,1,1.7.87,3.62,3.62,0,0,1,1.13,1.64,1.53,1.53,0,0,1-.3,1.56L49.57,54.3l7.07,6.19,4.69-5.35a1.57,1.57,0,0,1,1.43-.57,3,3,0,0,1,1.63.78,2.82,2.82,0,0,1,.92,1.45,1.57,1.57,0,0,1-.37,1.5l-4.69,5.35,9.69,8.48a1.57,1.57,0,0,1,.46,1.61,4.64,4.64,0,0,1-2.8,3.2A1.57,1.57,0,0,1,66,76.68Z" fill="#3a1772"/><path d="M83.4,57.91,66,32.79a1.81,1.81,0,0,1-.29-1.4,1.88,1.88,0,0,1,.83-1.26l7.57-5.24q9.06-6.27,14.65,1.81a10.59,10.59,0,0,1,2.17,6,8.17,8.17,0,0,1-1.83,5.15l11.51,5.93a1.15,1.15,0,0,1,.62.49,2.87,2.87,0,0,1,.25,2.49A3.93,3.93,0,0,1,100,49.08a2.29,2.29,0,0,1-2.55,0L84.6,42.16l-3.21,2.22,7,10.09a1.58,1.58,0,0,1,.08,1.66,4.63,4.63,0,0,1-3.5,2.42A1.57,1.57,0,0,1,83.4,57.91ZM78.66,40.44l4.21-2.91Q87,34.7,84.13,30.6t-7-1.3L73,32.21Z" fill="#3a1772"/><path d="M107.37,42.62,96.85,14a1.61,1.61,0,0,1,.26-1.6,3.32,3.32,0,0,1,1.57-1.13l15.54-5.71a1.57,1.57,0,0,1,1.61.26,3.45,3.45,0,0,1,1.09,1.55,3.5,3.5,0,0,1,.19,2,1.58,1.58,0,0,1-1,1.23l-12.35,4.54,3.24,8.82,6.63-2.44a1.62,1.62,0,0,1,1.56.2,2.91,2.91,0,0,1,1.07,1.43,2.85,2.85,0,0,1,.1,1.69A1.6,1.6,0,0,1,115.24,26l-6.63,2.44,3.26,8.87,12.35-4.54a1.58,1.58,0,0,1,1.58.27,3.5,3.5,0,0,1,1.15,1.63,3.45,3.45,0,0,1,.17,1.89,1.56,1.56,0,0,1-1.06,1.24l-15.54,5.71a3.31,3.31,0,0,1-1.92.16A1.6,1.6,0,0,1,107.37,42.62Z" fill="#3a1772"/><path d="M132.69,34.31,129.44,4a1.6,1.6,0,0,1,.64-1.49,3.32,3.32,0,0,1,1.79-.71L148.33,0a1.57,1.57,0,0,1,1.5.64,3.45,3.45,0,0,1,.68,1.77,3.5,3.5,0,0,1-.3,2,1.58,1.58,0,0,1-1.3.94l-13.09,1.4,1,9.35,7-.75a1.62,1.62,0,0,1,1.46.58,2.91,2.91,0,0,1,.69,1.65,2.85,2.85,0,0,1-.31,1.66,1.6,1.6,0,0,1-1.33.88l-7,.75,1,9.39,13.09-1.4a1.58,1.58,0,0,1,1.47.65,3.5,3.5,0,0,1,.71,1.86,3.45,3.45,0,0,1-.29,1.87,1.57,1.57,0,0,1-1.33.95l-16.46,1.77a3.31,3.31,0,0,1-1.9-.32A1.6,1.6,0,0,1,132.69,34.31Z" fill="#3a1772"/><path d="M170.57,29.86a3.68,3.68,0,0,1,1.32-1.92,2.3,2.3,0,0,1,2-.63,2.37,2.37,0,0,1,1.19.9,16,16,0,0,1,1.13,1.62A6.79,6.79,0,0,0,178,31.58a7.38,7.38,0,0,0,2.75,1.29,6.36,6.36,0,0,0,3.86-.1,3.48,3.48,0,0,0,2.18-2.6,4.13,4.13,0,0,0-.18-2.64,6.5,6.5,0,0,0-1.63-2.3q-1.11-1-2.48-2.07t-2.72-2.25a18.58,18.58,0,0,1-2.38-2.56A7.6,7.6,0,0,1,176,15.1a9.48,9.48,0,0,1,.18-4.1,9.57,9.57,0,0,1,2.05-4.09,7.66,7.66,0,0,1,3.32-2.27A12.48,12.48,0,0,1,185.37,4a15.88,15.88,0,0,1,4,.49,20.76,20.76,0,0,1,2.44.78A23.47,23.47,0,0,1,194.5,6.5a6,6,0,0,1,2.1,1.77,2.48,2.48,0,0,1,.46,2.1,4.3,4.3,0,0,1-1.16,1.94,2,2,0,0,1-2,.66,8.67,8.67,0,0,1-2-1.42,9.45,9.45,0,0,0-3.8-1.87,6.7,6.7,0,0,0-4,0,3.07,3.07,0,0,0-2,2.24,3.11,3.11,0,0,0,.51,2.57,8.74,8.74,0,0,0,2.29,2.27q1.45,1,3.09,2.42a30.47,30.47,0,0,1,3,2.9,8.75,8.75,0,0,1,1.89,3.84,10.67,10.67,0,0,1-.13,5.13A9.28,9.28,0,0,1,188,37.52a11.87,11.87,0,0,1-8.42.6,14.86,14.86,0,0,1-6.91-3.62Q170,32,170.57,29.86Z" fill="#3a1772"/><path d="M196.57,40.69l14.75-26.75a1.51,1.51,0,0,1,1.45-.81,5.1,5.1,0,0,1,3.75,2.07,1.51,1.51,0,0,1,.09,1.66L210.69,27.6l9.16,5.05,5.92-10.74a1.51,1.51,0,0,1,1.45-.81A5.1,5.1,0,0,1,231,23.16a1.51,1.51,0,0,1,.09,1.66L216.33,51.58a1.57,1.57,0,0,1-1.47.8,4.64,4.64,0,0,1-3.73-2.05,1.58,1.58,0,0,1-.09-1.66l6.51-11.81-9.16-5.05-6.51,11.81a1.57,1.57,0,0,1-1.47.8,4.64,4.64,0,0,1-3.73-2.05A1.58,1.58,0,0,1,196.57,40.69Z" fill="#3a1772"/><path d="M222.31,56.73l19.83-23.24a1.51,1.51,0,0,1,1.59-.5A5.11,5.11,0,0,1,247,35.77a1.51,1.51,0,0,1-.24,1.65L226.9,60.66a1.57,1.57,0,0,1-1.6.48,4.63,4.63,0,0,1-3.24-2.76A1.57,1.57,0,0,1,222.31,56.73Z" fill="#3a1772"/><path d="M254.62,45.48a3.49,3.49,0,0,1,1.75-.78,1.56,1.56,0,0,1,1.51.6l12.34,15.31a1.56,1.56,0,0,1,.27,1.61,3.49,3.49,0,0,1-1.14,1.54,3.45,3.45,0,0,1-1.8.79,1.58,1.58,0,0,1-1.5-.58l-4.26-5.29-21.07,17a1.58,1.58,0,0,1-1.67.18,4.62,4.62,0,0,1-2.67-3.31,1.58,1.58,0,0,1,.55-1.58L258,54l-4.29-5.32a1.59,1.59,0,0,1-.27-1.57A3.42,3.42,0,0,1,254.62,45.48Z" fill="#3a1772"/><path d="M97,115.45a1.71,1.71,0,0,1-.71-.15L40.82,90a1.72,1.72,0,0,1,1.42-3.12l55.47,25.29a1.72,1.72,0,0,1-.71,3.28Z" fill="#3a1772"/><path d="M97,139.34H23a1.72,1.72,0,1,1,0-3.43H97a1.72,1.72,0,1,1,0,3.43Z" fill="#3a1772"/><path d="M47.38,189.83a1.72,1.72,0,0,1-.87-3.2l49.62-29.12a1.72,1.72,0,0,1,1.74,3L48.25,189.6A1.71,1.71,0,0,1,47.38,189.83Z" fill="#3a1772"/><path d="M31.92,86a1.71,1.71,0,0,1-.72-.16l-8.92-4.12a1.72,1.72,0,1,1,1.44-3.12l8.92,4.12A1.72,1.72,0,0,1,31.92,86Z" fill="#3a1772"/><path d="M15.45,139.34H1.72a1.72,1.72,0,1,1,0-3.43H15.45a1.72,1.72,0,1,1,0,3.43Z" fill="#3a1772"/><path d="M31.92,200a1.72,1.72,0,0,1-.89-3.18l8.24-5A1.72,1.72,0,0,1,41,194.74l-8.24,5A1.71,1.71,0,0,1,31.92,200Z" fill="#3a1772"/><path d="M209.46,115.45a1.72,1.72,0,0,1-.71-3.28l56.84-25.85A1.72,1.72,0,0,1,267,89.45L210.17,115.3A1.71,1.71,0,0,1,209.46,115.45Z" fill="#3a1772"/><path d="M283.46,139.34h-74a1.72,1.72,0,0,1,0-3.43h74a1.72,1.72,0,0,1,0,3.43Z" fill="#3a1772"/><path d="M259.08,189.83a1.71,1.71,0,0,1-.87-.24l-49.62-29.12a1.72,1.72,0,0,1,1.74-3l49.62,29.12a1.72,1.72,0,0,1-.87,3.2Z" fill="#3a1772"/><path d="M274.54,86a1.72,1.72,0,0,1-.72-3.27l8.92-4.12a1.72,1.72,0,1,1,1.44,3.12l-8.92,4.12A1.71,1.71,0,0,1,274.54,86Z" fill="#3a1772"/><path d="M304.74,139.34H291a1.72,1.72,0,0,1,0-3.43h13.73a1.72,1.72,0,1,1,0,3.43Z" fill="#3a1772"/><path d="M274.53,200a1.71,1.71,0,0,1-.89-.25l-8.24-5a1.72,1.72,0,0,1,1.78-2.93l8.24,5a1.72,1.72,0,0,1-.89,3.18Z" fill="#3a1772"/></g></svg>