<svg xmlns="http://www.w3.org/2000/svg" viewBox="0 0 128.96 128.96"><title>fsg</title><g id="Layer_2" data-name="Layer 2"><polygon points="52.47 94.6 28.44 86.95 28.44 35.67 52.47 43.01 52.47 94.6" fill="none" stroke="#3a1772" stroke-linecap="round" stroke-linejoin="round" stroke-width="2"/><polygon points="100.51 94.6 76.49 86.95 76.49 35.67 100.51 43.01 100.51 94.6" fill="none" stroke="#3a1772" stroke-linecap="round" stroke-linejoin="round" stroke-width="2"/><polygon points="52.47 94.6 76.49 86.95 76.49 35.67 52.47 43.01 52.47 94.6" fill="none" stroke="#3a1772" stroke-linecap="round" stroke-linejoin="round" stroke-width="2"/><text transform="translate(34.25 82.4) scale(0.99 1)" font-size="6.85" fill="#4c52a2" stroke="#3a1772" stroke-miterlimit="10" font-family="Roboto-Bold, Roboto" font-weight="700">X</text><text transform="translate(83.29 49.81) scale(0.99 1)" font-size="6.85" fill="#4c52a2" stroke="#3a1772" stroke-miterlimit="10" font-family="Roboto-Bold, Roboto" font-weight="700">X</text><path d="M36.75,74.11s.2-.64.63-1.62" fill="none" stroke="#3a1772" stroke-linecap="round" stroke-linejoin="round" stroke-width="2.09"/><path d="M39,69.36c2.7-4.48,8-10.09,16.76-7.09,10.44,3.57,3.31,14.29,26.32,9.94,17.33-3.28,10.62-12.57,6.25-17" fill="none" stroke="#3a1772" stroke-linecap="round" stroke-linejoin="round" stroke-width="2.09" stroke-dasharray="3.53 3.53"/><path d="M87,54c-.79-.71-1.33-1.13-1.33-1.13" fill="none" stroke="#3a1772" stroke-linecap="round" stroke-linejoin="round" stroke-width="2.09"/></g></svg>