<svg xmlns="http://www.w3.org/2000/svg" viewBox="0 0 128.96 128.96"><title>icon-cards</title><g id="Layer_2" data-name="Layer 2"><path d="M41.91,49.24h.15a2.4,2.4,0,1,0-.15,0Z" fill="#3a1772"/><path d="M100.42,36.2l-20.34-4L80,30.27a1,1,0,0,0-1.06-.93L69,30,54,27a1,1,0,0,0-1.18.79L52.17,31,31.66,32.35a1,1,0,0,0-.93,1.06l4.14,64.91a1,1,0,0,0,1,.94h.06l28.61-1.83L87.4,102l.19,0a1,1,0,0,0,1-.81l12.64-63.8A1,1,0,0,0,100.42,36.2ZM78,31.4l0,.37-1.4-.28ZM36.8,97.2l-4-62.91,19-1.21-.67,3.37-14,.89a1,1,0,0,0,.06,2h.06l13.42-.86L49.6,44A2.33,2.33,0,0,0,49,44a2.4,2.4,0,0,0-.33,4.74l-1.26,6.38-9.09.58a1,1,0,0,0,.06,2h.06L47,57.14,46.63,59l-8.06.51a1,1,0,0,0,.06,2h.06l7.53-.48L45,67.12l-6,.38a1,1,0,0,0,.06,2h.06l5.42-.35-.46,2.34-4.81.31a1,1,0,0,0,.06,2h.06l4.28-.27-.46,2.34-3.67.23a1,1,0,0,0,.06,2h.06l3.14-.2L40.28,91.06a1,1,0,0,0-.64,1l.13,2a1,1,0,0,0,1,.94h.06l5.49-.35a1,1,0,0,0,.69-.34,1,1,0,0,0,.17-.3l9.72,1.93Zm50,2.6L42.33,91,54.59,29.16,99.06,38Z" fill="#3a1772"/><path d="M57.63,35.19l35.63,7.06.2,0a1,1,0,0,0,.19-2L58,33.22a1,1,0,0,0-.39,2Z" fill="#3a1772"/><path d="M87.77,69.93,52.14,62.87a1,1,0,1,0-.39,2l35.63,7.06.2,0a1,1,0,0,0,.19-2Z" fill="#3a1772"/><path d="M86.93,74.15,51.31,67.09a1,1,0,1,0-.39,2l35.63,7.06.2,0a1,1,0,0,0,.19-2Z" fill="#3a1772"/><path d="M50.08,73.28l26.44,5.24.2,0a1,1,0,0,0,.19-2L50.47,71.32a1,1,0,0,0-.39,2Z" fill="#3a1772"/><path d="M54.06,53.22l18,3.56.2,0a1,1,0,0,0,.19-2l-18-3.56a1,1,0,1,0-.39,2Z" fill="#3a1772"/><path d="M53.31,57l18,3.56.2,0a1,1,0,0,0,.19-2L53.69,55a1,1,0,0,0-.39,2Z" fill="#3a1772"/><path d="M81.06,50.21a2.4,2.4,0,1,0-1.53-1A2.39,2.39,0,0,0,81.06,50.21Z" fill="#3a1772"/><path d="M89.1,46.91a2.4,2.4,0,1,0,1.53,1A2.4,2.4,0,0,0,89.1,46.91Z" fill="#3a1772"/><path d="M73.94,48.8a2.42,2.42,0,0,0,.47,0,2.41,2.41,0,1,0-.47,0Z" fill="#3a1772"/><path d="M66.83,47.39a2.4,2.4,0,1,0-1.53-1A2.38,2.38,0,0,0,66.83,47.39Z" fill="#3a1772"/><path d="M59.72,46a2.4,2.4,0,1,0-1.53-1A2.39,2.39,0,0,0,59.72,46Z" fill="#3a1772"/><path d="M83.69,93.1l-7.85-1.55a1,1,0,0,0-1.18.79l-.39,2a1,1,0,0,0,.79,1.18L82.91,97l.19,0a1,1,0,0,0,1-.81l.39-2A1,1,0,0,0,83.69,93.1Z" fill="#3a1772"/><path d="M53,87l-5.4-1.07a1,1,0,0,0-1.18.79l-.39,2a1,1,0,0,0,.79,1.18l5.4,1.07.2,0a1,1,0,0,0,1-.81l.39-2A1,1,0,0,0,53,87Z" fill="#3a1772"/></g></svg>