<svg xmlns="http://www.w3.org/2000/svg" viewBox="0 0 128.96 128.96"><title>fsg</title><g id="Layer_2" data-name="Layer 2"><polyline points="93.43 36.78 97.06 36.78 97.06 98.17 36.56 98.17 36.56 94.17" fill="none" stroke="#3a1772" stroke-linecap="round" stroke-linejoin="round" stroke-width="2"/><polyline points="85.98 41.88 83.38 41.88 81.72 41.88" fill="none" stroke="#3a1772" stroke-linecap="round" stroke-linejoin="round" stroke-width="2"/><polyline points="64.14 41.88 61.54 41.88 59.89 41.88" fill="none" stroke="#3a1772" stroke-linecap="round" stroke-linejoin="round" stroke-width="2"/><polyline points="38.05 41.88 39.7 41.88 42.3 41.88" fill="none" stroke="#3a1772" stroke-linecap="round" stroke-linejoin="round" stroke-width="2"/><polyline points="48.97 41.88 50.62 41.88 53.22 41.88" fill="none" stroke="#3a1772" stroke-linecap="round" stroke-linejoin="round" stroke-width="2"/><polyline points="70.81 41.88 72.46 41.88 75.06 41.88" fill="none" stroke="#3a1772" stroke-linecap="round" stroke-linejoin="round" stroke-width="2"/><rect x="31.9" y="36.81" width="60.5" height="56.29" fill="none" stroke="#3a1772" stroke-linecap="round" stroke-linejoin="round" stroke-width="2"/><rect x="37.57" y="50.83" width="48.37" height="36.05" fill="none" stroke="#3a1772" stroke-linecap="round" stroke-linejoin="round" stroke-width="2"/><line x1="44.31" y1="50.83" x2="44.31" y2="86.88" fill="none" stroke="#3a1772" stroke-linecap="round" stroke-linejoin="round" stroke-width="2"/><line x1="50.09" y1="50.83" x2="50.09" y2="86.88" fill="none" stroke="#3a1772" stroke-linecap="round" stroke-linejoin="round" stroke-width="2"/><line x1="55.87" y1="50.83" x2="55.87" y2="86.88" fill="none" stroke="#3a1772" stroke-linecap="round" stroke-linejoin="round" stroke-width="2"/><line x1="61.64" y1="50.83" x2="61.64" y2="86.88" fill="none" stroke="#3a1772" stroke-linecap="round" stroke-linejoin="round" stroke-width="2"/><line x1="67.42" y1="50.83" x2="67.42" y2="86.88" fill="none" stroke="#3a1772" stroke-linecap="round" stroke-linejoin="round" stroke-width="2"/><line x1="73.2" y1="50.83" x2="73.2" y2="86.88" fill="none" stroke="#3a1772" stroke-linecap="round" stroke-linejoin="round" stroke-width="2"/><line x1="78.97" y1="50.83" x2="78.97" y2="86.88" fill="none" stroke="#3a1772" stroke-linecap="round" stroke-linejoin="round" stroke-width="2"/><line x1="37.57" y1="57.84" x2="85.93" y2="57.84" fill="none" stroke="#3a1772" stroke-linecap="round" stroke-linejoin="round" stroke-width="2"/><line x1="37.57" y1="65.23" x2="85.93" y2="65.23" fill="none" stroke="#3a1772" stroke-linecap="round" stroke-linejoin="round" stroke-width="2"/><line x1="37.57" y1="72.61" x2="85.93" y2="72.61" fill="none" stroke="#3a1772" stroke-linecap="round" stroke-linejoin="round" stroke-width="2"/><line x1="37.57" y1="80" x2="85.93" y2="80" fill="none" stroke="#3a1772" stroke-linecap="round" stroke-linejoin="round" stroke-width="2"/><path d="M47,36.75a6,6,0,1,0-6,6,5.77,5.77,0,0,0,1-.08" fill="none" stroke="#3a1772" stroke-linecap="round" stroke-linejoin="round" stroke-width="2"/><circle cx="41.01" cy="42.4" r="1.4" fill="none" stroke="#3a1772" stroke-linecap="round" stroke-linejoin="round" stroke-width="2"/><path d="M58,36.75a6,6,0,1,0-6,6,5.77,5.77,0,0,0,1-.08" fill="none" stroke="#3a1772" stroke-linecap="round" stroke-linejoin="round" stroke-width="2"/><circle cx="51.92" cy="42.4" r="1.4" fill="none" stroke="#3a1772" stroke-linecap="round" stroke-linejoin="round" stroke-width="2"/><path d="M68.87,36.75a6,6,0,1,0-6,6,5.77,5.77,0,0,0,1-.08" fill="none" stroke="#3a1772" stroke-linecap="round" stroke-linejoin="round" stroke-width="2"/><circle cx="62.84" cy="42.4" r="1.4" fill="none" stroke="#3a1772" stroke-linecap="round" stroke-linejoin="round" stroke-width="2"/><path d="M79.79,36.75a6,6,0,1,0-6,6,5.77,5.77,0,0,0,1-.08" fill="none" stroke="#3a1772" stroke-linecap="round" stroke-linejoin="round" stroke-width="2"/><circle cx="73.76" cy="42.4" r="1.4" fill="none" stroke="#3a1772" stroke-linecap="round" stroke-linejoin="round" stroke-width="2"/><path d="M90.71,36.75a6,6,0,1,0-6,6,5.77,5.77,0,0,0,1-.08" fill="none" stroke="#3a1772" stroke-linecap="round" stroke-linejoin="round" stroke-width="2"/><circle cx="84.68" cy="42.4" r="1.4" fill="none" stroke="#3a1772" stroke-linecap="round" stroke-linejoin="round" stroke-width="2"/></g></svg>