<svg id="Layer_2" data-name="Layer 2" xmlns="http://www.w3.org/2000/svg" viewBox="0 0 45 68"><title>logo-hand-only</title><path d="M36.71,6.67h-0.6a6.65,6.65,0,0,0-6.65,6.65v4.25a6.6,6.6,0,0,0-7,1.34,6.62,6.62,0,0,0-7.14-1.3V8.27A6.65,6.65,0,0,0,8.66,1.62H8.29A6.65,6.65,0,0,0,1.64,8.27V46.45c0,11,9.36,19.93,20.86,19.93s20.86-8.94,20.86-19.93V13.31A6.65,6.65,0,0,0,36.71,6.67ZM27,21.15A2.57,2.57,0,0,1,29.46,23v9.53H24.53V23.72c0-.21,0-0.41,0-0.62A2.58,2.58,0,0,1,27,21.15ZM15.31,23.72a2.58,2.58,0,0,1,5.08-.62c0,0.2,0,.41,0,0.62v8.81h-5V23.72ZM5.71,8.27A2.58,2.58,0,0,1,8.29,5.69H8.66a2.58,2.58,0,0,1,2.58,2.58V32.54H5.71V8.27ZM39.29,46.45c0,8.75-7.53,15.86-16.8,15.86S5.71,55.2,5.71,46.45V36.6H29.46v1.47a3.74,3.74,0,0,1-3.74,3.74H12.14a2,2,0,1,0,0,4.07h5.08c1.94,0.76,5.42,2.72,5.58,4.79a2,2,0,0,0,2,1.88H25a2,2,0,0,0,1.87-2.18,7.29,7.29,0,0,0-2.2-4.48h1.08a7.81,7.81,0,0,0,7.8-7.8V35.21a2,2,0,0,0,.11-0.64V23.72a6.63,6.63,0,0,0-.11-1.2V13.31a2.58,2.58,0,0,1,2.58-2.58h0.6a2.58,2.58,0,0,1,2.58,2.58V46.45Z" fill="#4c52a3"/></svg>