<svg id="Layer_2" data-name="Layer 2" xmlns="http://www.w3.org/2000/svg" viewBox="0 0 188.48 64.76"><title>nav-logo</title><path d="M90.82,7.22a3.1,3.1,0,0,0-2.94-2.15H60.12A8.16,8.16,0,0,0,54,7.32a8.35,8.35,0,0,0-2.23,6.14V52.74a11.1,11.1,0,0,0,.54,3.79A4.87,4.87,0,0,0,54,58.79a6.38,6.38,0,0,0,2.63,1.13,18.45,18.45,0,0,0,3.62.32A32.42,32.42,0,0,0,64.36,60l0.42-.06a3.08,3.08,0,0,0,2.66-3.06V43.45a3.08,3.08,0,0,1,3.08-3.08H83.07a5.34,5.34,0,0,0,4-1.49q1.47-1.49,1.47-4.92A11.83,11.83,0,0,0,88,30.53q-0.1-.34-0.22-0.65a3,3,0,0,0-2.87-2H70.35a3.08,3.08,0,0,1-3.08-3.08v-4a3.08,3.08,0,0,1,3.08-3.08H86a5.34,5.34,0,0,0,4-1.49q1.47-1.49,1.47-5A12.29,12.29,0,0,0,91,7.73Z" fill="#4c52a3"/><path d="M117.65,25.74l-4.73-1.53a12,12,0,0,1-3.48-1.58,2.63,2.63,0,0,1-1.16-2.21,3.29,3.29,0,0,1,1.88-2.84,11.82,11.82,0,0,1,5.9-1.13,26.17,26.17,0,0,1,7.24.95,25.55,25.55,0,0,1,3.42,1.22,3.12,3.12,0,0,0,3.73-.87,11.57,11.57,0,0,0,.71-1,7.27,7.27,0,0,0,1.07-4,6.59,6.59,0,0,0-1.34-4.11,9.91,9.91,0,0,0-3.71-2.89,21.16,21.16,0,0,0-5.67-1.67,44.22,44.22,0,0,0-7.15-.54q-10.54,0-16.39,4.6A14.84,14.84,0,0,0,92.1,20.42a15.72,15.72,0,0,0,1.3,6.73A14,14,0,0,0,97,31.88a21.84,21.84,0,0,0,5.54,3.39q3.22,1.4,7.15,2.75l3.75,1.26a18.45,18.45,0,0,1,4,1.85,3.1,3.1,0,0,1,1.43,2.75,3.91,3.91,0,0,1-1.79,3.16q-1.79,1.35-6.16,1.35A21.12,21.12,0,0,1,103,47a26.65,26.65,0,0,1-4.39-2.21,3.07,3.07,0,0,0-3.72.23,13.42,13.42,0,0,0-1.31,1.39,6.81,6.81,0,0,0-1.52,4.47,7.19,7.19,0,0,0,1.47,4.47,11.4,11.4,0,0,0,4.11,3.25,24,24,0,0,0,6.16,2,40.55,40.55,0,0,0,7.64.68q11.61,0,17.6-4.74a15.08,15.08,0,0,0,6-12.41q0-7.22-4.51-11.42T117.65,25.74Z" fill="#4c52a3"/><path d="M187,28.23a5.58,5.58,0,0,0-4.15-1.49h-15.1a5.2,5.2,0,0,0-3.8,1.45q-1.47,1.44-1.47,4.69a11.77,11.77,0,0,0,.49,3.43l0.15,0.47a3.09,3.09,0,0,0,2.94,2.15h4.41A3.08,3.08,0,0,1,173.57,42v3.26a3,3,0,0,1-2.29,3h0a15.12,15.12,0,0,1-3.48.36,17,17,0,0,1-5.72-.95,13.24,13.24,0,0,1-4.73-2.89,13.66,13.66,0,0,1-3.26-5,19.34,19.34,0,0,1-1.21-7.18q0-7.67,4.42-12t11.93-4.33a20.62,20.62,0,0,1,7.55,1.31q2.13,0.83,3.81,1.69a3.07,3.07,0,0,0,3.72-.76,11.27,11.27,0,0,0,.73-1,7.08,7.08,0,0,0,1.16-4.06q0-4.42-5-7.18T167.76,3.53a37.1,37.1,0,0,0-11.48,1.81,29.08,29.08,0,0,0-9.92,5.46,27.1,27.1,0,0,0-7,9.16,29.61,29.61,0,0,0-2.64,12.91,29.72,29.72,0,0,0,2.41,12.37,25.25,25.25,0,0,0,6.57,8.89,27.35,27.35,0,0,0,9.78,5.33,40.19,40.19,0,0,0,12.06,1.76,44.36,44.36,0,0,0,4.87-.27,44,44,0,0,0,4.69-.77A33.84,33.84,0,0,0,181.25,59a19.64,19.64,0,0,0,3.13-1.4A10.21,10.21,0,0,0,187.5,55a7.1,7.1,0,0,0,1-4.15V32.42A5.71,5.71,0,0,0,187,28.23Z" fill="#4c52a3"/><path d="M35.07,5h-0.6a6.65,6.65,0,0,0-6.65,6.65v4.25a6.6,6.6,0,0,0-7,1.34A6.62,6.62,0,0,0,13.67,16V6.65A6.65,6.65,0,0,0,7,0H6.65A6.65,6.65,0,0,0,0,6.65V44.83c0,11,9.36,19.93,20.86,19.93s20.86-8.94,20.86-19.93V11.69A6.65,6.65,0,0,0,35.07,5ZM25.36,19.52a2.57,2.57,0,0,1,2.47,1.86v9.53H22.89V22.1c0-.21,0-0.41,0-0.62A2.58,2.58,0,0,1,25.36,19.52ZM13.67,22.1a2.58,2.58,0,0,1,5.08-.62c0,0.2,0,.41,0,0.62v8.81h-5V22.1ZM4.07,6.65A2.58,2.58,0,0,1,6.65,4.07H7A2.58,2.58,0,0,1,9.6,6.65V30.92H4.07V6.65ZM37.65,44.83c0,8.75-7.53,15.86-16.8,15.86S4.07,53.57,4.07,44.83V35H27.82v1.47a3.74,3.74,0,0,1-3.74,3.74H10.49a2,2,0,0,0,0,4.07h5.08C17.51,45,21,47,21.16,49.05a2,2,0,0,0,2,1.88h0.16a2,2,0,0,0,1.87-2.18A7.29,7.29,0,0,0,23,44.26h1.08a7.81,7.81,0,0,0,7.8-7.8V33.59A2,2,0,0,0,32,32.95V22.1a6.63,6.63,0,0,0-.11-1.2V11.69a2.58,2.58,0,0,1,2.58-2.58h0.6a2.58,2.58,0,0,1,2.58,2.58V44.83Z" fill="#4c52a3"/></svg>