<svg xmlns="http://www.w3.org/2000/svg" viewBox="0 0 200 200"><title>reg-step</title><g id="Layer_2" data-name="Layer 2"><path d="M44.72,133.14c0,27.12,23.12,49.1,51.63,49.1s51.65-22,51.65-49.1v-56a12.34,12.34,0,0,0-12.34-12.34h-2.28A12.34,12.34,0,0,0,121,77.19v25.64a10.94,10.94,0,0,0,10.67,10.94l5.08.13A10.94,10.94,0,0,0,148,103h0" fill="none" stroke="#3a1772" stroke-linecap="round" stroke-linejoin="round" stroke-width="4"/><path d="M44.72,133.14V100.56H121v9.62A15.83,15.83,0,0,1,105.22,126H67.93" fill="none" stroke="#3a1772" stroke-linecap="round" stroke-linejoin="round" stroke-width="4"/><path d="M82.88,126s19,6.7,19.86,18.3" fill="none" stroke="#3a1772" stroke-linecap="round" stroke-linejoin="round" stroke-width="4"/><path d="M108.71,59.68h0A12.34,12.34,0,0,1,121,72v28.54a0,0,0,0,1,0,0H96.36a0,0,0,0,1,0,0V72a12.34,12.34,0,0,1,12.34-12.34Z" fill="none" stroke="#3a1772" stroke-linecap="round" stroke-linejoin="round" stroke-width="4"/><path d="M81.75,66.39h1.59A12.34,12.34,0,0,1,95.68,78.73v21.83a0,0,0,0,1,0,0H69.4a0,0,0,0,1,0,0V78.73A12.34,12.34,0,0,1,81.75,66.39Z" fill="none" stroke="#3a1772" stroke-linecap="round" stroke-linejoin="round" stroke-width="4"/><line x1="102.75" y1="152.87" x2="102.75" y2="161.62" fill="none" stroke="#3a1772" stroke-linecap="round" stroke-linejoin="round" stroke-width="4"/><path d="M57.06,12.79h0A12.34,12.34,0,0,1,69.4,25.13v75.43a0,0,0,0,1,0,0H44.72a0,0,0,0,1,0,0V25.13A12.34,12.34,0,0,1,57.06,12.79Z" fill="none" stroke="#3a1772" stroke-linecap="round" stroke-linejoin="round" stroke-width="4"/></g></svg>