<svg xmlns="http://www.w3.org/2000/svg" viewBox="0 0 80 120"><title>social-sprites</title><g id="_950_guides" data-name="950 guides"><path d="M53.66,29.29a15.89,15.89,0,0,1-9.52-2.85.88.88,0,0,1,.54-1.59h.15a10.75,10.75,0,0,0,1.63.11,10.54,10.54,0,0,0,3.05-.42l1.63-.5-1.43-.94a6.33,6.33,0,0,1-2.59-3.53.87.87,0,0,1,0-.5l.13-.45-.33-.33a6.47,6.47,0,0,1-1.85-4.87.88.88,0,0,1,.29-.63l.42-.38-.22-.52A6.28,6.28,0,0,1,46,6a.88.88,0,0,1,.69-.43h0a.91.91,0,0,1,.74.31s4.17,4.85,9.44,5.6l.87.13,0-.88a6.61,6.61,0,0,1,6.62-6.33,6.54,6.54,0,0,1,4.21,1.5l.26.22.34,0a5.79,5.79,0,0,0,2.68-1,.88.88,0,0,1,1.39.65,1.89,1.89,0,0,1-.07.61L73,7l.59.29A.88.88,0,0,1,74,8.44a11.75,11.75,0,0,1-2.63,3l-.24.23V12C71,15.28,69.81,26,57.2,29A19,19,0,0,1,53.66,29.29Z" fill="#7348f8"/><path d="M56.41,111.69a.88.88,0,0,1-.88-.88V97.06H51.12a.88.88,0,0,1-.88-.88V92.29a.88.88,0,0,1,.88-.88h4l0-.77a12.85,12.85,0,0,1,.42-3.2,7,7,0,0,1,7-5.4h4.7a.88.88,0,0,1,.88.88v4a.88.88,0,0,1-.88.88h-2.2c-2.3,0-2.48,1.6-2.48,2.09V91.4H67a.88.88,0,0,1,.88.88v3.9a.88.88,0,0,1-.88.88H62.57v13.74a.88.88,0,0,1-.88.88Z" fill="#7348f8"/><rect x="43.2" y="43.83" width="29.97" height="29.97" rx="5.74" ry="5.74" transform="translate(117 0.63) rotate(90)" fill="#7348f8"/><path d="M65.84,6.45a5.73,5.73,0,0,1,4.1,1.72H70a6.59,6.59,0,0,0,3.81-1.25s.09,1.23-2.37,3.13a8.3,8.3,0,0,0,3.21-.87s-.22.79-3,3.29c0,0,.93,13.48-13.21,16.78a17.83,17.83,0,0,1-3.38.3,15,15,0,0,1-9-2.67,11.25,11.25,0,0,0,1.78.13c1.86,0,4.77-.39,6.71-2.54h0a5.56,5.56,0,0,1-5.19-4,6.41,6.41,0,0,0,1.21.12,2.92,2.92,0,0,0,1.17-.2,5.7,5.7,0,0,1-4.39-5.8,4,4,0,0,0,2,.74l.27,0s-4-3.42-1.53-7.69c0,0,5.09,6,11.51,6l.58,0a5.75,5.75,0,0,1,5.57-7.18m8.84,2.73h0M65.84,4.77a7.44,7.44,0,0,0-7.42,7.1c-5-.71-8.9-5.28-8.94-5.33a1.69,1.69,0,0,0-1.28-.59H48a1.68,1.68,0,0,0-1.31.83,7.12,7.12,0,0,0-.44,6.58,1.67,1.67,0,0,0-.55,1.21A7.27,7.27,0,0,0,47.82,20a1.67,1.67,0,0,0,0,1,7.13,7.13,0,0,0,2.91,4,10.67,10.67,0,0,1-4.32.28l-.29,0a1.68,1.68,0,0,0-1,3,16.68,16.68,0,0,0,10,3,19.5,19.5,0,0,0,3.73-.33c13.23-3.09,14.46-14.47,14.54-17.69a13,13,0,0,0,2.8-3.28,1.68,1.68,0,0,0-.77-2.26,2.68,2.68,0,0,0,.1-.87,1.68,1.68,0,0,0-2.66-1.25,5,5,0,0,1-2.31.9,7.37,7.37,0,0,0-4.71-1.69Z" fill="#3a1772"/><path d="M66.87,53.71h1.9a1.89,1.89,0,0,0,1.88-1.9v-2a1.89,1.89,0,0,0-1.88-1.9h-1.9A1.89,1.89,0,0,0,65,49.84v2A1.89,1.89,0,0,0,66.87,53.71Zm-.63-3.87a.64.64,0,0,1,.63-.66h1.9a.64.64,0,0,1,.63.66v2a.64.64,0,0,1-.63.66h-1.9a.64.64,0,0,1-.63-.66Z" fill="#3a1772"/><path d="M59.65,67.88a5.75,5.75,0,1,0-5.75-5.75A5.76,5.76,0,0,0,59.65,67.88Zm0-9.82a4.07,4.07,0,1,1-4.07,4.07A4.07,4.07,0,0,1,59.65,58.06Z" fill="#3a1772"/><path d="M68.89,44.17H50.41a6.55,6.55,0,0,0-6.54,6.54V69.19a6.55,6.55,0,0,0,6.54,6.54H68.89a6.55,6.55,0,0,0,6.54-6.54V50.71A6.55,6.55,0,0,0,68.89,44.17ZM50.41,45.85H68.89a4.86,4.86,0,0,1,4.86,4.86v3.84h-9a9.12,9.12,0,0,0-10.21,0h-9V50.71A4.86,4.86,0,0,1,50.41,45.85Zm9.24,8.82a7.45,7.45,0,1,1-7.45,7.45A7.46,7.46,0,0,1,59.65,54.67Zm9.24,19.38H50.41a4.86,4.86,0,0,1-4.86-4.86V55.79h7.53a9.14,9.14,0,1,0,13.15,0h7.53v13.4A4.86,4.86,0,0,1,68.89,74.05Z" fill="#3a1772"/><path d="M64,84.05h4.7v4h-2.2c-2.33,0-3.36,1.45-3.36,3v2.35h5.3v3.9H63.15v14.62H57.87V97.31H52.58V93.43h4.9a14.89,14.89,0,0,1,.4-4.63A6.14,6.14,0,0,1,64,84.05m0-1.68h0a7.73,7.73,0,0,0-7.76,6,13.52,13.52,0,0,0-.46,3.41H52.58a1.68,1.68,0,0,0-1.68,1.68v3.89A1.68,1.68,0,0,0,52.58,99h3.61v13a1.68,1.68,0,0,0,1.68,1.68h5.28a1.68,1.68,0,0,0,1.68-1.68V99h3.62a1.68,1.68,0,0,0,1.68-1.68v-3.9a1.68,1.68,0,0,0-1.68-1.68H64.85v-.66c0-.86.56-1.29,1.68-1.29h2.2a1.68,1.68,0,0,0,1.68-1.68v-4a1.68,1.68,0,0,0-1.68-1.68H64Z" fill="#3a1772"/><path d="M13.66,29.29a15.89,15.89,0,0,1-9.52-2.85.88.88,0,0,1,.54-1.59h.15A10.75,10.75,0,0,0,6.45,25a10.54,10.54,0,0,0,3.05-.42l1.63-.5-1.43-.94A6.33,6.33,0,0,1,7.13,19.6a.87.87,0,0,1,0-.5l.13-.45-.33-.33a6.47,6.47,0,0,1-1.85-4.87.88.88,0,0,1,.29-.63l.42-.38-.22-.52A6.28,6.28,0,0,1,6,6a.88.88,0,0,1,.69-.43h0a.91.91,0,0,1,.74.31s4.17,4.85,9.44,5.6l.87.13,0-.88a6.61,6.61,0,0,1,6.62-6.33,6.54,6.54,0,0,1,4.21,1.5l.26.22.34,0a5.79,5.79,0,0,0,2.68-1,.88.88,0,0,1,1.39.65,1.89,1.89,0,0,1-.07.61L33,7l.59.29A.88.88,0,0,1,34,8.44a11.75,11.75,0,0,1-2.63,3l-.24.23V12C31,15.28,29.81,26,17.2,29A19,19,0,0,1,13.66,29.29Z" fill="#ffe904"/><path d="M16.4,111.69a.88.88,0,0,1-.88-.88V97.06H11.11a.88.88,0,0,1-.88-.88V92.29a.88.88,0,0,1,.88-.88h4l0-.77a12.85,12.85,0,0,1,.42-3.2,7,7,0,0,1,7-5.4h4.7a.88.88,0,0,1,.88.88v4a.88.88,0,0,1-.88.88h-2.2c-2.3,0-2.48,1.6-2.48,2.09V91.4H27a.88.88,0,0,1,.88.88v3.9a.88.88,0,0,1-.88.88H22.57v13.74a.88.88,0,0,1-.88.88Z" fill="#ffe904"/><rect x="3.2" y="43.83" width="29.97" height="29.97" rx="5.74" ry="5.74" transform="translate(77 40.63) rotate(90)" fill="#ffe904"/><path d="M25.84,6.45a5.73,5.73,0,0,1,4.1,1.72H30a6.59,6.59,0,0,0,3.81-1.25s.09,1.23-2.37,3.13a8.3,8.3,0,0,0,3.21-.87s-.22.79-3,3.29c0,0,.93,13.48-13.21,16.78a17.83,17.83,0,0,1-3.38.3,15,15,0,0,1-9-2.67A11.25,11.25,0,0,0,7.92,27c1.86,0,4.77-.39,6.71-2.54h0a5.56,5.56,0,0,1-5.19-4,6.41,6.41,0,0,0,1.21.12,2.92,2.92,0,0,0,1.17-.2,5.7,5.7,0,0,1-4.39-5.8,4,4,0,0,0,2,.74l.27,0s-4-3.42-1.53-7.69c0,0,5.09,6,11.51,6l.58,0a5.75,5.75,0,0,1,5.57-7.18m8.84,2.73h0M25.84,4.77a7.44,7.44,0,0,0-7.42,7.1c-5-.71-8.9-5.28-8.94-5.33a1.69,1.69,0,0,0-1.28-.59H8a1.68,1.68,0,0,0-1.31.83,7.12,7.12,0,0,0-.44,6.58,1.67,1.67,0,0,0-.55,1.21A7.27,7.27,0,0,0,7.82,20a1.67,1.67,0,0,0,0,1,7.13,7.13,0,0,0,2.91,4,9.84,9.84,0,0,1-2.82.38,9.89,9.89,0,0,1-1.49-.1l-.29,0a1.68,1.68,0,0,0-1,3,16.68,16.68,0,0,0,10,3,19.5,19.5,0,0,0,3.73-.33c13.23-3.09,14.46-14.47,14.54-17.69a13,13,0,0,0,2.8-3.28,1.68,1.68,0,0,0-.77-2.26,2.68,2.68,0,0,0,.1-.87,1.68,1.68,0,0,0-2.66-1.25,5,5,0,0,1-2.31.9,7.37,7.37,0,0,0-4.71-1.69Z" fill="#3a1772"/><path d="M26.87,53.71h1.9a1.89,1.89,0,0,0,1.88-1.9v-2a1.89,1.89,0,0,0-1.88-1.9h-1.9A1.89,1.89,0,0,0,25,49.84v2A1.89,1.89,0,0,0,26.87,53.71Zm-.63-3.87a.64.64,0,0,1,.63-.66h1.9a.64.64,0,0,1,.63.66v2a.64.64,0,0,1-.63.66h-1.9a.64.64,0,0,1-.63-.66Z" fill="#3a1772"/><path d="M19.65,67.88a5.75,5.75,0,1,0-5.75-5.75A5.76,5.76,0,0,0,19.65,67.88Zm0-9.82a4.07,4.07,0,1,1-4.07,4.07A4.07,4.07,0,0,1,19.65,58.06Z" fill="#3a1772"/><path d="M28.89,44.17H10.41a6.55,6.55,0,0,0-6.54,6.54V69.19a6.55,6.55,0,0,0,6.54,6.54H28.89a6.55,6.55,0,0,0,6.54-6.54V50.71A6.55,6.55,0,0,0,28.89,44.17ZM10.41,45.85H28.89a4.86,4.86,0,0,1,4.86,4.86v3.84h-9a9.12,9.12,0,0,0-10.21,0h-9V50.71A4.86,4.86,0,0,1,10.41,45.85Zm9.24,8.82a7.45,7.45,0,1,1-7.45,7.45A7.46,7.46,0,0,1,19.65,54.67Zm9.24,19.38H10.41a4.86,4.86,0,0,1-4.86-4.86V55.79h7.53a9.14,9.14,0,1,0,13.15,0h7.53v13.4A4.86,4.86,0,0,1,28.89,74.05Z" fill="#3a1772"/><path d="M24,84.05h4.7v4h-2.2c-2.33,0-3.36,1.45-3.36,3v2.35h5.3v3.9H23.15v14.62H17.87V97.31H12.58V93.43h4.9a14.89,14.89,0,0,1,.4-4.63A6.14,6.14,0,0,1,24,84.05m0-1.68h0a7.73,7.73,0,0,0-7.76,6,13.52,13.52,0,0,0-.46,3.41H12.58a1.68,1.68,0,0,0-1.68,1.68v3.89A1.68,1.68,0,0,0,12.58,99h3.61v13a1.68,1.68,0,0,0,1.68,1.68h5.28a1.68,1.68,0,0,0,1.68-1.68V99h3.62a1.68,1.68,0,0,0,1.68-1.68v-3.9a1.68,1.68,0,0,0-1.68-1.68H24.85v-.66c0-.86.56-1.29,1.68-1.29h2.2a1.68,1.68,0,0,0,1.68-1.68v-4a1.68,1.68,0,0,0-1.68-1.68H24Z" fill="#3a1772"/></g></svg>