<svg xmlns="http://www.w3.org/2000/svg" viewBox="0 0 106.73 36.73"><title>social-sprite</title><g id="Layer_2" data-name="Layer 2"><path d="M23.8,4.82a5.73,5.73,0,0,1,4.1,1.72H28A6.59,6.59,0,0,0,31.8,5.29s.09,1.23-2.37,3.13a8.3,8.3,0,0,0,3.21-.87s-.22.79-3,3.29c0,0,.93,13.48-13.21,16.78a17.83,17.83,0,0,1-3.38.3,15,15,0,0,1-9-2.67,11.25,11.25,0,0,0,1.78.13c1.86,0,4.77-.39,6.71-2.54h0a5.56,5.56,0,0,1-5.19-4A6.41,6.41,0,0,0,8.6,19a2.92,2.92,0,0,0,1.17-.2A5.7,5.7,0,0,1,5.38,13a4,4,0,0,0,2,.74l.27,0S3.65,10.26,6.15,6c0,0,5.09,6,11.51,6l.58,0A5.75,5.75,0,0,1,23.8,4.82m8.84,2.73h0M23.8,3.13a7.44,7.44,0,0,0-7.42,7.1c-5-.71-8.9-5.28-8.94-5.33a1.69,1.69,0,0,0-1.28-.59H6a1.68,1.68,0,0,0-1.31.83,7.12,7.12,0,0,0-.44,6.58,1.67,1.67,0,0,0-.55,1.21,7.27,7.27,0,0,0,2.08,5.44,1.67,1.67,0,0,0,0,1,7.13,7.13,0,0,0,2.91,4,9.84,9.84,0,0,1-2.82.38,9.89,9.89,0,0,1-1.49-.1l-.29,0a1.68,1.68,0,0,0-1,3,16.68,16.68,0,0,0,10,3,19.5,19.5,0,0,0,3.73-.33C30,26.17,31.27,14.79,31.35,11.57a13,13,0,0,0,2.8-3.28A1.68,1.68,0,0,0,33.38,6a2.68,2.68,0,0,0,.1-.87,1.68,1.68,0,0,0-2.66-1.25,5,5,0,0,1-2.31.9A7.37,7.37,0,0,0,23.8,3.13Z" fill="#3a1772"/><path d="M94.52,2.42h4.7v4H97c-2.33,0-3.36,1.45-3.36,3v2.35H99v3.9H93.65V30.31H88.37V15.68H83.08V11.79H88a14.89,14.89,0,0,1,.4-4.63,6.14,6.14,0,0,1,6.14-4.75m0-1.68h0a7.73,7.73,0,0,0-7.76,6,13.52,13.52,0,0,0-.46,3.41H83.08a1.68,1.68,0,0,0-1.68,1.68v3.89a1.68,1.68,0,0,0,1.68,1.68h3.61v13A1.68,1.68,0,0,0,88.37,32h5.28a1.68,1.68,0,0,0,1.68-1.68V17.37H99a1.68,1.68,0,0,0,1.68-1.68v-3.9A1.68,1.68,0,0,0,99,10.11H95.34V9.45c0-.86.56-1.29,1.68-1.29h2.2a1.68,1.68,0,0,0,1.68-1.68v-4A1.68,1.68,0,0,0,99.22.74h-4.7Z" fill="#3a1772"/><path d="M60.59,12.08h1.9a1.89,1.89,0,0,0,1.88-1.9v-2a1.89,1.89,0,0,0-1.88-1.9h-1.9a1.89,1.89,0,0,0-1.88,1.9v2A1.89,1.89,0,0,0,60.59,12.08ZM60,8.21a.64.64,0,0,1,.63-.66h1.9a.64.64,0,0,1,.63.66v2a.64.64,0,0,1-.63.66h-1.9a.64.64,0,0,1-.63-.66Z" fill="#3a1772"/><path d="M53.37,26.24a5.75,5.75,0,1,0-5.75-5.75A5.76,5.76,0,0,0,53.37,26.24Zm0-9.82a4.07,4.07,0,1,1-4.07,4.07A4.07,4.07,0,0,1,53.37,16.43Z" fill="#3a1772"/><path d="M62.61,2.53H44.12a6.55,6.55,0,0,0-6.54,6.54V27.56a6.55,6.55,0,0,0,6.54,6.54H62.61a6.55,6.55,0,0,0,6.54-6.54V9.07A6.55,6.55,0,0,0,62.61,2.53ZM44.12,4.21H62.61a4.86,4.86,0,0,1,4.86,4.86v3.84h-9a9.12,9.12,0,0,0-10.21,0h-9V9.07A4.86,4.86,0,0,1,44.12,4.21ZM53.37,13a7.45,7.45,0,1,1-7.45,7.45A7.46,7.46,0,0,1,53.37,13Zm9.24,19.38H44.12a4.86,4.86,0,0,1-4.86-4.86V14.16h7.53a9.14,9.14,0,1,0,13.15,0h7.53v13.4A4.86,4.86,0,0,1,62.61,32.42Z" fill="#3a1772"/></g></svg>