<svg xmlns="http://www.w3.org/2000/svg" viewBox="0 0 379.58 326.75"><title>fsg</title><g id="Layer_2" data-name="Layer 2"><path d="M297.5,242.31l11.77-2.89,54.34-13.34a10.18,10.18,0,0,0,7.47-12.32l-8.6-35a8,8,0,0,0-9.67-5.86h-.05a44.71,44.71,0,0,1-25.08-1.1l-55.69-19" fill="none" stroke="#3a1772" stroke-linecap="round" stroke-linejoin="round" stroke-width="3"/><path d="M217.3,187.72l-.74.78-6,2.9a9.41,9.41,0,0,0-4.33,12.68,8.05,8.05,0,0,0,10.69,3.67l.53-.25" fill="none" stroke="#3a1772" stroke-linecap="round" stroke-linejoin="round" stroke-width="3"/><path d="M223.48,204.6l-6,2.9a9.41,9.41,0,0,0-4.79,11.69,9.08,9.08,0,0,0,12,5.31" fill="none" stroke="#3a1772" stroke-linecap="round" stroke-linejoin="round" stroke-width="3"/><path d="M230.69,221.91l-5.94,2.54-.12,0-.43.18a9.41,9.41,0,0,0-5.12,12,6.78,6.78,0,0,0,9.3,3.74l1.09-.52" fill="none" stroke="#3a1772" stroke-linecap="round" stroke-linejoin="round" stroke-width="3"/><path d="M236.27,236.57l-6.8,3.29a9.41,9.41,0,0,0,6.48,17.55l8.24-2,.15,0" fill="none" stroke="#3a1772" stroke-linecap="round" stroke-linejoin="round" stroke-width="3"/><path d="M273.21,210.2l10.14-2.63c.37-.09.7.35.57.76l-3.72,11.22a.63.63,0,0,0,.05.5l6.07,10.71c.22.39,0,.86-.4.81L275.34,230a.4.4,0,0,0-.39.18l-6.39,9.25c-.23.33-.71.18-.81-.26L264.92,227a.58.58,0,0,0-.29-.39l-10-5a.59.59,0,0,1-.1-1l8.84-6a.51.51,0,0,0,.21-.42l.19-12.34a.43.43,0,0,1,.75-.34l8.3,8.49A.44.44,0,0,0,273.21,210.2Z" fill="#4c52a2"/><path d="M223.28,167.5a46.08,46.08,0,0,0,2.2,27.84l42.7,105.84c1.11,2.75,3.64,4.22,5.65,3.26l52.76-25c2-1,2.74-4,1.63-6.71l-42.7-105.84a41.68,41.68,0,0,0-17.35-20.65l-3.52-2c-8.33-4.81-15.12-12.89-19.08-22.71L226.68,74.66c-2,2.57-6,5.55-11,7.91S206.11,86.07,203,86l18.86,46.74a50.69,50.69,0,0,1,2.42,30.62Z" fill="#ffe904"/><polygon points="311.74 231.86 251.7 260.32 229.93 206.37 289.97 177.91 311.74 231.86" fill="#7348f8"/><path d="M226.87,72.11c-1-2.52-7.56-1.86-14.62,1.49s-12,8.1-10.94,10.63,7.56,1.86,14.62-1.49S227.89,74.63,226.87,72.11Z" fill="#ffe904"/><path d="M217,165.49a46.08,46.08,0,0,0,2.2,27.84l42.7,105.84c1.11,2.75,3.64,4.22,5.65,3.26l52.76-25c2-1,2.74-4,1.63-6.71l-42.7-105.84a41.68,41.68,0,0,0-17.35-20.65l-3.52-2c-8.33-4.81-15.12-12.89-19.08-22.71L220.35,72.65c-2,2.57-6,5.55-11,7.91s-9.58,3.5-12.67,3.39l18.86,46.74A50.69,50.69,0,0,1,218,161.31Z" fill="none" stroke="#3a1772" stroke-linecap="round" stroke-linejoin="round" stroke-width="3"/><polygon points="305.41 229.85 245.37 258.31 223.61 204.35 283.64 175.89 305.41 229.85" fill="none" stroke="#3a1772" stroke-linecap="round" stroke-linejoin="round" stroke-width="3"/><path d="M220.54,70.1c-1-2.52-7.56-1.86-14.62,1.49S194,79.69,195,82.21s7.56,1.86,14.62-1.49S221.56,72.62,220.54,70.1Z" fill="none" stroke="#3a1772" stroke-linecap="round" stroke-linejoin="round" stroke-width="3"/><path d="M267.48,208.16l10.15-2.61a.45.45,0,0,1,.53.62l-4.11,9.65a.45.45,0,0,0,0,.42l5.62,8.85a.45.45,0,0,1-.42.69l-10.44-.92a.45.45,0,0,0-.39.16l-6.68,8.08a.45.45,0,0,1-.79-.19l-2.35-10.22a.45.45,0,0,0-.27-.32l-9.75-3.86a.45.45,0,0,1-.07-.81l9-5.39a.45.45,0,0,0,.22-.36l.66-10.46a.45.45,0,0,1,.75-.31l7.91,6.89A.45.45,0,0,0,267.48,208.16Z" fill="#ff39e7"/><path d="M267.48,208.16l10.15-2.61a.46.46,0,0,1,.53.62l-4.1,9.64a.46.46,0,0,0,0,.42l5.62,8.85a.46.46,0,0,1-.42.7l-10.44-.92a.46.46,0,0,0-.39.16l-6.68,8.08a.46.46,0,0,1-.79-.19l-2.35-10.21a.46.46,0,0,0-.28-.32l-9.74-3.86a.46.46,0,0,1-.07-.81l9-5.39a.46.46,0,0,0,.22-.36l.66-10.46a.46.46,0,0,1,.75-.31l7.9,6.88A.46.46,0,0,0,267.48,208.16Z" fill="none" stroke="#3a1772" stroke-linecap="round" stroke-linejoin="round" stroke-width="3"/><path d="M337.42,213.23s-24.17,14.34-33.64-4.11-16.35-19.23-25.5-14.75c-5,2.43-12.13,5.61-17.63,8a10.57,10.57,0,0,1-13-3.81h0a10.57,10.57,0,0,1,4.18-15.4l22.55-10.9a16.23,16.23,0,0,1,8.14-1.58l21.08,1.4" fill="#fff" stroke="#3a1772" stroke-linecap="round" stroke-linejoin="round" stroke-width="3"/><line x1="344.51" y1="210.21" x2="352.42" y2="205.86" fill="none" stroke="#3a1772" stroke-linecap="round" stroke-linejoin="round" stroke-width="3"/><path d="M81.43,244.71l-11.8-2.78L15.18,229.1A10.19,10.19,0,0,1,7.6,216.85l8.27-35.11a8,8,0,0,1,9.62-5.95h0a44.66,44.66,0,0,0,25.06-1.33L106.12,155" fill="#fff" stroke="#3a1772" stroke-linecap="round" stroke-linejoin="round" stroke-width="3"/><path d="M161.12,189.4l.75.77,6,2.83a9.43,9.43,0,0,1,4.45,12.65,8.06,8.06,0,0,1-10.66,3.76l-6.58-3.08,6.05,2.84a9.42,9.42,0,0,1,4.9,11.65,9.08,9.08,0,0,1-11.84,5.44l-.2-.07-6-2.49,6.17,2.56.35.15a9.41,9.41,0,0,1,5.8,8.7,9.31,9.31,0,0,1-.57,3.22,6.77,6.77,0,0,1-9.26,3.81l-1.24-.58" fill="#fff" stroke="#3a1772" stroke-linecap="round" stroke-linejoin="round" stroke-width="3"/><path d="M142.61,238.41l6.69,3.15a9.42,9.42,0,0,1-6.18,17.69l-8.26-1.95-.14,0" fill="#fff" stroke="#3a1772" stroke-linecap="round" stroke-linejoin="round" stroke-width="3"/><path d="M105.42,212.39l-10.17-2.54c-.37-.09-.7.36-.56.76l3.82,11.18a.63.63,0,0,1,0,.5l-6,10.77c-.22.39,0,.86.41.8l10.58-1.66a.4.4,0,0,1,.39.17l6.47,9.19c.23.33.71.17.81-.27l2.72-12.21a.58.58,0,0,1,.29-.4l10-5.09a.59.59,0,0,0,.09-1l-8.9-5.89a.51.51,0,0,1-.21-.42L114.81,204a.43.43,0,0,0-.75-.33l-8.22,8.57A.44.44,0,0,1,105.42,212.39Z" fill="#4c52a2"/><path d="M155,169.23A46.08,46.08,0,0,1,153,197.08L111.3,303.31c-1.09,2.76-3.6,4.25-5.62,3.32l-53-24.52c-2-.93-2.77-3.93-1.69-6.7L92.72,169.17a41.68,41.68,0,0,1,17.16-20.81l3.51-2.07c8.29-4.89,15-13,18.87-22.89l18.45-47c2,2.55,6.06,5.49,11.06,7.81s9.61,3.41,12.71,3.27L156,134.41a50.69,50.69,0,0,0-2.14,30.64Z" fill="#ffe904"/><polygon points="67.1 234.4 127.4 262.31 148.67 208.15 88.37 180.25 67.1 234.4" fill="#7348f8"/><path d="M150.49,73.87c1-2.53,7.55-1.93,14.64,1.35s12,8,11,10.53-7.55,1.93-14.64-1.35S149.49,76.4,150.49,73.87Z" fill="#ffe904"/><path d="M161.26,167.15A46.08,46.08,0,0,1,159.32,195L117.6,301.24c-1.09,2.76-3.6,4.25-5.62,3.32L59,280c-2-.93-2.77-3.93-1.69-6.7L99,167.1a41.68,41.68,0,0,1,17.16-20.81l3.51-2.07c8.29-4.89,15-13,18.87-22.89l18.45-47c2,2.55,6.06,5.49,11.06,7.81s9.61,3.41,12.71,3.27l-18.42,46.91A50.69,50.69,0,0,0,160.21,163Z" fill="none" stroke="#3a1772" stroke-linecap="round" stroke-linejoin="round" stroke-width="3"/><polygon points="73.41 232.33 133.71 260.23 154.97 206.08 94.67 178.17 73.41 232.33" fill="none" stroke="#3a1772" stroke-linecap="round" stroke-linejoin="round" stroke-width="3"/><path d="M156.8,71.8c1-2.53,7.55-1.93,14.64,1.35s12,8,11,10.53-7.55,1.93-14.64-1.35S155.8,74.33,156.8,71.8Z" fill="none" stroke="#3a1772" stroke-linecap="round" stroke-linejoin="round" stroke-width="3"/><path d="M111.13,210.29,101,207.77a.46.46,0,0,0-.53.62l4.19,9.6a.46.46,0,0,1,0,.42l-5.53,8.9a.46.46,0,0,0,.43.69l10.43-1a.46.46,0,0,1,.39.16l6.75,8a.46.46,0,0,0,.79-.2l2.25-10.23a.46.46,0,0,1,.27-.32l9.71-3.95a.46.46,0,0,0,.06-.81l-9-5.31a.46.46,0,0,1-.22-.36l-.75-10.45a.46.46,0,0,0-.76-.31l-7.84,7A.46.46,0,0,1,111.13,210.29Z" fill="#ff39e7"/><path d="M111.13,210.29,101,207.77a.46.46,0,0,0-.53.62l4.19,9.6a.46.46,0,0,1,0,.42l-5.53,8.9a.46.46,0,0,0,.43.69l10.43-1a.46.46,0,0,1,.39.16l6.75,8a.46.46,0,0,0,.79-.2l2.25-10.23a.46.46,0,0,1,.27-.32l9.71-3.95a.46.46,0,0,0,.06-.81l-9-5.31a.46.46,0,0,1-.22-.36l-.75-10.45a.46.46,0,0,0-.76-.31l-7.84,7A.46.46,0,0,1,111.13,210.29Z" fill="none" stroke="#3a1772" stroke-linecap="round" stroke-linejoin="round" stroke-width="3"/><path d="M41.25,216s24.3,14.11,33.6-4.42,16.17-19.38,25.37-15c5,2.38,12.18,5.5,17.71,7.85a10.57,10.57,0,0,0,13-3.93h0a10.57,10.57,0,0,0-4.32-15.36l-22.65-10.7A16.23,16.23,0,0,0,95.76,173l-21.07,1.6" fill="#fff" stroke="#3a1772" stroke-linecap="round" stroke-linejoin="round" stroke-width="3"/><line x1="34.13" y1="213.05" x2="26.18" y2="208.78" fill="none" stroke="#3a1772" stroke-linecap="round" stroke-linejoin="round" stroke-width="3"/><line x1="182.73" y1="67.46" x2="164.37" y2="47.47" fill="none" stroke="#3a1772" stroke-linecap="round" stroke-linejoin="round" stroke-width="3"/><line x1="194.23" y1="65.92" x2="212.19" y2="48.15" fill="none" stroke="#3a1772" stroke-linecap="round" stroke-linejoin="round" stroke-width="3"/><line x1="158.8" y1="42.27" x2="150.83" y2="33.52" fill="none" stroke="#3a1772" stroke-linecap="round" stroke-linejoin="round" stroke-width="3"/><line x1="218.91" y1="42.03" x2="224.32" y2="36.01" fill="none" stroke="#3a1772" stroke-linecap="round" stroke-linejoin="round" stroke-width="3"/><line x1="187.82" y1="56.57" x2="187.82" y2="21.25" fill="none" stroke="#3a1772" stroke-linecap="round" stroke-linejoin="round" stroke-width="3"/><line x1="187.82" y1="12.7" x2="187.82" y2="5.52" fill="none" stroke="#3a1772" stroke-linecap="round" stroke-linejoin="round" stroke-width="3"/></g></svg>