<svg xmlns="http://www.w3.org/2000/svg" viewBox="0 0 24 24"><title>free-icon</title><g id="Layer_2" data-name="Layer 2"><path d="M17.09,6.29V15h0a1.82,1.82,0,0,1-1.9,1.29c-1.08,0-1.9-.65-1.9-1.45s.88-1.45,1.9-1.45a2.51,2.51,0,0,1,.84.14V7.88L10.31,9v7.36h0a1.82,1.82,0,0,1-1.9,1.29c-1.08,0-1.9-.65-1.9-1.45s.88-1.45,1.9-1.45a2.51,2.51,0,0,1,.84.14v-7l7.84-1.63m0-1H16.9L9,7a1,1,0,0,0-.76,1v5.93a2.63,2.63,0,0,0-2.79,2.39,2.66,2.66,0,0,0,2.86,2.4,2.8,2.8,0,0,0,2.86-2,1,1,0,0,0,0-.3V9.87L15,9.11v3.44a2.63,2.63,0,0,0-2.79,2.39,2.66,2.66,0,0,0,2.86,2.4,2.8,2.8,0,0,0,2.86-2,1,1,0,0,0,0-.3V6.29a1,1,0,0,0-1-1Z" fill="#3a1772"/></g></svg>