<svg xmlns="http://www.w3.org/2000/svg" viewBox="0 0 130 26"><title>free-icons-sprite</title><g id="Layer_2" data-name="Layer 2"><path d="M17.1,5.68a.35.35,0,0,1,.35.35V19.79a.71.71,0,0,1-1.41,0V15.3a3.37,3.37,0,0,0-.69-1.92A2.45,2.45,0,0,1,15,11.89c0-2.24.39-6.22,2.12-6.22m0-1c-2.81,0-3.12,5-3.12,7.22a3.43,3.43,0,0,0,.52,2l.1.16A2.18,2.18,0,0,1,15,15.3v4.5a1.71,1.71,0,0,0,3.41,0V6A1.35,1.35,0,0,0,17.1,4.68Z" fill="#3a1772"/><path d="M9,5.68H9A.42.42,0,0,1,9.51,6V8.5a.48.48,0,0,0,.92,0h0c0-.35,0-2.47,0-2.47a.48.48,0,0,1,.92,0V8.5h0a.48.48,0,0,0,.92,0V6a.48.48,0,0,1,.92,0V9a2.09,2.09,0,0,1-.49,1.5,3.12,3.12,0,0,0-1,2v7.32c0,.39-.3.62-.81.62s-.68-.23-.68-.62V12.56c0-.94-.75-1.51-1.15-2A2.08,2.08,0,0,1,8.58,9V6A.42.42,0,0,1,9,5.68m3.69-1a1.54,1.54,0,0,0-.93.3,1.53,1.53,0,0,0-.92-.3A1.55,1.55,0,0,0,10,5,1.54,1.54,0,0,0,9,4.68,1.41,1.41,0,0,0,7.59,6V9a3.05,3.05,0,0,0,.7,2.13c.1.12.21.25.34.38.37.4.59.67.59,1v7.32a1.55,1.55,0,0,0,1.68,1.62,1.65,1.65,0,0,0,1.81-1.62V12.56a1.76,1.76,0,0,1,.58-1.13l.21-.25A3.05,3.05,0,0,0,14.2,9V6a1.4,1.4,0,0,0-1.46-1.35Z" fill="#3a1772"/><polygon points="34.4 7.31 43.6 7.31 39 13 34.4 7.31" fill="none" stroke="#3a1772" stroke-linecap="round" stroke-linejoin="round"/><line x1="39" y1="13" x2="39" y2="18.86" fill="none" stroke="#3a1772" stroke-linecap="round" stroke-linejoin="round"/><line x1="36.83" y1="18.86" x2="41.17" y2="18.86" fill="none" stroke="#3a1772" stroke-linecap="round" stroke-linejoin="round"/><path d="M68.91,7.07l2.52,2L69.72,11l-.64-.56v8.63H60.94V10.54l-.54.54L58.58,9.25,61,7.07h1.87a2.2,2.2,0,0,0,4.38,0h1.71m0-1H67.2a1,1,0,0,0-1,.9,1.2,1.2,0,0,1-2.39,0,1,1,0,0,0-1-.9H61a1,1,0,0,0-.68.26L57.9,8.51a1,1,0,0,0,0,1.44l1.82,1.83a1,1,0,0,0,.25.18v7.14a1,1,0,0,0,1,1h8.15a1,1,0,0,0,1-1V12a1,1,0,0,0,.39-.27l1.7-1.94a1,1,0,0,0-.13-1.44l-2.52-2a1,1,0,0,0-.63-.22Z" fill="#3a1772"/><path d="M95.63,7v9.2h0a1.91,1.91,0,0,1-2,1.36c-1.13,0-2-.68-2-1.52s.92-1.52,2-1.52a2.64,2.64,0,0,1,.88.15v-6l-6,1.2V17.6h0a1.91,1.91,0,0,1-2,1.36c-1.13,0-2-.68-2-1.52s.92-1.52,2-1.52a2.64,2.64,0,0,1,.88.15V8.71L95.63,7m0-1-.2,0L87.1,7.73a1,1,0,0,0-.8,1v6.23a2.76,2.76,0,0,0-2.93,2.51,2.79,2.79,0,0,0,3,2.52,2.94,2.94,0,0,0,3-2.05,1,1,0,0,0,.05-.31V10.76l4-.8v3.61a2.76,2.76,0,0,0-2.93,2.51,2.79,2.79,0,0,0,3,2.52,2.94,2.94,0,0,0,3-2.05,1,1,0,0,0,.05-.31V7a1,1,0,0,0-1-1Z" fill="#3a1772"/><path d="M118.55,6.46,117,12.27h2.75l-4.5,6.83L117,13.65h-2.75l4.3-7.19m1.2,5.81h0m-1.2-6.81a1,1,0,0,0-.86.49l-4.3,7.19a1,1,0,0,0,.86,1.51h1.38L114.3,18.8a1,1,0,0,0,1.79.86l4.47-6.79a1,1,0,0,0-.8-1.59H118.3l1.21-4.55a1,1,0,0,0-1-1.26Zm0,2h0Z" fill="#3a1772"/></g></svg>