<svg xmlns="http://www.w3.org/2000/svg" viewBox="0 0 24 24"><title>free-icon</title><g id="Layer_2" data-name="Layer 2"><path d="M15.7,6.27l2.4,1.9L16.47,10l-.61-.53V17.7H8.11V9.58l-.51.51L5.86,8.35l2.3-2.08H9.95a2.09,2.09,0,0,0,4.17,0h1.63m0-1H14.07a1,1,0,0,0-1,.86,1.14,1.14,0,0,1-2.27,0,1,1,0,0,0-1-.86H8.17a1,1,0,0,0-.65.25L5.22,7.65A1,1,0,0,0,5.19,9l0,0,1.73,1.74a1,1,0,0,0,.24.17v6.8a1,1,0,0,0,1,1H15.9a1,1,0,0,0,1-1V11a1,1,0,0,0,.37-.26l1.62-1.85a1,1,0,0,0-.09-1.34l0,0-2.4-1.9a1,1,0,0,0-.6-.21Z" fill="#3a1772"/></g></svg>