<svg xmlns="http://www.w3.org/2000/svg" viewBox="0 0 148.93 48.76"><title>fsg</title><g id="Layer_2" data-name="Layer 2"><path d="M66.17,3.68A2.34,2.34,0,0,1,68.39,5.3l.12.39a9.26,9.26,0,0,1,.37,2.62,5.25,5.25,0,0,1-1.11,3.77,4,4,0,0,1-3,1.12H53a2.32,2.32,0,0,0-2.32,2.32v3A2.32,2.32,0,0,0,53,20.88H64a2.29,2.29,0,0,1,2.16,1.48q.09.24.16.49a8.91,8.91,0,0,1,.37,2.58,5.14,5.14,0,0,1-1.11,3.71,4,4,0,0,1-3,1.12H53.11a2.32,2.32,0,0,0-2.32,2.32V42.67a2.32,2.32,0,0,1-2,2.3l-.31,0a24.41,24.41,0,0,1-3.13.2A13.89,13.89,0,0,1,42.61,45a4.81,4.81,0,0,1-2-.85,3.67,3.67,0,0,1-1.21-1.7,8.36,8.36,0,0,1-.4-2.86V10a6.29,6.29,0,0,1,1.68-4.62,6.14,6.14,0,0,1,4.57-1.7Z" fill="#3a1772"/><path d="M85.6,28.7q-3-1-5.38-2.07a16.45,16.45,0,0,1-4.17-2.55,10.53,10.53,0,0,1-2.72-3.57,11.83,11.83,0,0,1-1-5.06A11.17,11.17,0,0,1,76.76,6.2q4.4-3.47,12.34-3.47a33.3,33.3,0,0,1,5.38.41,15.94,15.94,0,0,1,4.27,1.26,7.47,7.47,0,0,1,2.79,2.18,5,5,0,0,1,1,3.09,5.48,5.48,0,0,1-.81,3,8.83,8.83,0,0,1-.53.74,2.35,2.35,0,0,1-2.81.65,19.22,19.22,0,0,0-2.58-.92,19.71,19.71,0,0,0-5.45-.71,8.9,8.9,0,0,0-4.44.85,2.48,2.48,0,0,0-1.41,2.14,2,2,0,0,0,.87,1.67A9,9,0,0,0,88,18.3l3.56,1.16a25.73,25.73,0,0,1,9.72,5.2,11.18,11.18,0,0,1,3.4,8.6,11.36,11.36,0,0,1-4.51,9.35q-4.51,3.57-13.25,3.57a30.53,30.53,0,0,1-5.75-.51,18.06,18.06,0,0,1-4.64-1.5,8.58,8.58,0,0,1-3.09-2.45,5.41,5.41,0,0,1-1.11-3.37A5.13,5.13,0,0,1,73.49,35a10.14,10.14,0,0,1,1-1,2.31,2.31,0,0,1,2.8-.17,20.08,20.08,0,0,0,3.31,1.66,15.91,15.91,0,0,0,6,1.09q3.3,0,4.64-1a3,3,0,0,0,1.35-2.38A2.34,2.34,0,0,0,91.45,31a13.9,13.9,0,0,0-3-1.39Z" fill="#3a1772"/><path d="M148.93,38.35a5.35,5.35,0,0,1-.74,3.13,7.69,7.69,0,0,1-2.35,2,14.79,14.79,0,0,1-2.35,1.05,25.49,25.49,0,0,1-3.09.88,33.08,33.08,0,0,1-3.53.58,33.4,33.4,0,0,1-3.67.2,30.26,30.26,0,0,1-9.08-1.33,20.6,20.6,0,0,1-7.37-4,19,19,0,0,1-4.94-6.7A22.38,22.38,0,0,1,110,24.82a22.3,22.3,0,0,1,2-9.72,20.41,20.41,0,0,1,5.25-6.9,21.9,21.9,0,0,1,7.47-4.11,27.93,27.93,0,0,1,8.64-1.36q6.39,0,10.12,2.07t3.73,5.41a5.33,5.33,0,0,1-.87,3.06,8.5,8.5,0,0,1-.55.73,2.31,2.31,0,0,1-2.8.58q-1.26-.64-2.87-1.27a15.53,15.53,0,0,0-5.68-1,12.27,12.27,0,0,0-9,3.26q-3.33,3.26-3.33,9A14.56,14.56,0,0,0,123,30a10.28,10.28,0,0,0,2.46,3.74A10,10,0,0,0,129,35.94a12.83,12.83,0,0,0,4.3.71,11.38,11.38,0,0,0,2.62-.27h0a2.28,2.28,0,0,0,1.73-2.22V31.7a2.32,2.32,0,0,0-2.32-2.32h-3.32a2.33,2.33,0,0,1-2.21-1.62l-.11-.35a8.86,8.86,0,0,1-.37-2.58,4.79,4.79,0,0,1,1.11-3.54,3.91,3.91,0,0,1,2.86-1.09h11.37a4.2,4.2,0,0,1,3.13,1.12,4.3,4.3,0,0,1,1.11,3.16Z" fill="#3a1772"/><path d="M17.46,37.64a.82.82,0,0,1-.82-.76c-.17-2.17-3.6-3.85-4.91-4.31A.82.82,0,0,1,12.28,31c.23.08,5.72,2.06,6,5.74a.82.82,0,0,1-.76.88Z" fill="#3a1772" stroke="#3a1772" stroke-miterlimit="10" stroke-width="1.41"/><path d="M29.88,34.58a.82.82,0,0,1-.82-.82V8.8a2.65,2.65,0,0,0-2.65-2.65H26A2.65,2.65,0,0,0,23.31,8.8v16a.82.82,0,1,1-1.65,0V8.8A4.3,4.3,0,0,1,26,4.51h.45a4.3,4.3,0,0,1,4.3,4.3v25A.82.82,0,0,1,29.88,34.58Z" fill="#3a1772" stroke="#3a1772" stroke-miterlimit="10" stroke-width="1.41"/><path d="M8.76,25.63H1.53a.82.82,0,0,1-.82-.82V5A4.3,4.3,0,0,1,5,.71h.28A4.3,4.3,0,0,1,9.58,5V24.81A.82.82,0,0,1,8.76,25.63ZM2.35,24H7.94V5A2.65,2.65,0,0,0,5.29,2.35H5A2.65,2.65,0,0,0,2.35,5Z" fill="#3a1772" stroke="#3a1772" stroke-miterlimit="10" stroke-width="1.41"/><path d="M15.71,25.63H8.76a.82.82,0,0,1-.82-.82V16.64a4.3,4.3,0,0,1,8.59,0v8.17A.82.82,0,0,1,15.71,25.63ZM9.58,24h5.3V16.64a2.65,2.65,0,0,0-5.3,0Z" fill="#3a1772" stroke="#3a1772" stroke-miterlimit="10" stroke-width="1.41"/><path d="M22.57,25.63H15.62a.82.82,0,0,1-.82-.82V16.64a4.3,4.3,0,1,1,8.59,0v8.17A.82.82,0,0,1,22.57,25.63ZM16.44,24h5.3V16.64a2.65,2.65,0,1,0-5.3,0Z" fill="#3a1772" stroke="#3a1772" stroke-miterlimit="10" stroke-width="1.41"/><path d="M15.7,48.06c-8.27,0-15-6.42-15-14.3a.82.82,0,0,1,1.65,0c0,7,6,12.65,13.35,12.65s13.36-5.68,13.36-12.65a.82.82,0,0,1,1.65,0C30.71,41.64,24,48.06,15.7,48.06Z" fill="#3a1772" stroke="#3a1772" stroke-miterlimit="10" stroke-width="1.41"/><path d="M1.53,34.58a.82.82,0,0,1-.82-.82V24.81A.82.82,0,0,1,1.53,24h21a.82.82,0,0,1,.82.82v2.64a5.17,5.17,0,0,1-5.17,5.17H7.9A.82.82,0,0,1,7.9,31H18.14a3.52,3.52,0,0,0,3.52-3.52V25.63H2.35v8.12A.82.82,0,0,1,1.53,34.58Z" fill="#3a1772" stroke="#3a1772" stroke-miterlimit="10" stroke-width="1.41"/></g></svg>