<svg xmlns="http://www.w3.org/2000/svg" viewBox="0 0 200 200"><title>reg-step</title><g id="Layer_2" data-name="Layer 2"><path d="M45.84,134.15c0,27.12,23.12,49.1,51.63,49.1s51.65-22,51.65-49.1" fill="none" stroke="#3a1772" stroke-linecap="round" stroke-linejoin="round" stroke-width="4"/><path d="M45.84,134.15V101.56h76.33v9.62A15.83,15.83,0,0,1,106.34,127H69.05" fill="none" stroke="#3a1772" stroke-linecap="round" stroke-linejoin="round" stroke-width="4"/><path d="M84,127s19,6.7,19.86,18.3" fill="none" stroke="#3a1772" stroke-linecap="round" stroke-linejoin="round" stroke-width="4"/><path d="M149.13,134.15V43.25a12.65,12.65,0,0,0-12.65-12.65h-1.65a12.65,12.65,0,0,0-12.65,12.65v58.32" fill="none" stroke="#3a1772" stroke-linecap="round" stroke-linejoin="round" stroke-width="4"/><path d="M59.52,16.75h-1A12.65,12.65,0,0,0,45.84,29.41v72.15H72.18V29.41A12.65,12.65,0,0,0,59.52,16.75Z" fill="none" stroke="#3a1772" stroke-linecap="round" stroke-linejoin="round" stroke-width="4"/><path d="M97.49,101.56H72.18V71.81A12.65,12.65,0,0,1,84.83,59.16h0A12.65,12.65,0,0,1,97.49,71.81Z" fill="none" stroke="#3a1772" stroke-linecap="round" stroke-linejoin="round" stroke-width="4"/><path d="M122.48,101.56H97.17V71.81a12.65,12.65,0,0,1,12.65-12.65h0a12.65,12.65,0,0,1,12.65,12.65Z" fill="none" stroke="#3a1772" stroke-linecap="round" stroke-linejoin="round" stroke-width="4"/><line x1="103.87" y1="151.73" x2="103.87" y2="160.48" fill="none" stroke="#3a1772" stroke-linecap="round" stroke-linejoin="round" stroke-width="4"/></g></svg>