<svg xmlns="http://www.w3.org/2000/svg" viewBox="0 0 200 200"><title>reg-step</title><g id="Layer_2" data-name="Layer 2"><path d="M53.61,132.06c0,27.12,23.12,49.1,51.63,49.1s51.65-22,51.65-49.1v-56a12.34,12.34,0,0,0-12.34-12.34h-2.28a12.34,12.34,0,0,0-12.34,12.34v27.34a9.2,9.2,0,0,0,9,9.2l8.56.21a9.2,9.2,0,0,0,9.43-9.2h0" fill="none" stroke="#3a1772" stroke-linecap="round" stroke-linejoin="round" stroke-width="4"/><path d="M53.61,132.06V99.47h76.33v9.62a15.83,15.83,0,0,1-15.83,15.83H76.82" fill="none" stroke="#3a1772" stroke-linecap="round" stroke-linejoin="round" stroke-width="4"/><path d="M91.77,124.92s19,6.7,19.86,18.3" fill="none" stroke="#3a1772" stroke-linecap="round" stroke-linejoin="round" stroke-width="4"/><path d="M53.61,99.47,43.24,30.55a12.34,12.34,0,0,1,12.2-14.18H59a12.34,12.34,0,0,1,12.2,10.51L82.13,99.47Z" fill="none" stroke="#3a1772" stroke-linecap="round" stroke-linejoin="round" stroke-width="4"/><path d="M110.34,99.47l11.92-72.32A12.34,12.34,0,0,0,110.08,12.8h-3.51A12.34,12.34,0,0,0,94.4,23.14L81.82,99.47Z" fill="none" stroke="#3a1772" stroke-linecap="round" stroke-linejoin="round" stroke-width="4"/><path d="M116.87,59.86q.36,0,.72,0a12.33,12.33,0,0,1,12.34,12.34V99.48H105.25" fill="none" stroke="#3a1772" stroke-linecap="round" stroke-linejoin="round" stroke-width="4"/><line x1="111.64" y1="148.91" x2="111.64" y2="157.66" fill="none" stroke="#3a1772" stroke-linecap="round" stroke-linejoin="round" stroke-width="4"/></g></svg>