<svg xmlns="http://www.w3.org/2000/svg" viewBox="0 0 346.94 321.46"><title>fsg</title><g id="Layer_2" data-name="Layer 2"><polygon points="115.41 46.95 115.41 59.18 135.51 56.24 148.15 55.55 167.84 52 174.34 55.24 192.46 54.88 204.09 28.43 188.67 16.58 171.18 19.83 128.97 32.62 115.41 46.95" fill="#ff39e7"/><rect x="127.14" y="188.15" width="84.43" height="15.95" fill="#fe0"/><rect x="105.67" y="139.22" width="124.33" height="35.42" fill="#fe0"/><path d="M231.07,192s-19.85,47.56-18.21,57.9c0,0-9.92-8.43-20.8-8.43v-28.2Z" fill="#47fbe0"/><path d="M101.42,188.15s18.37,46.6,12.6,57.73c0,0,18.12-13.69,27-4.46v-28.2Z" fill="#47fbe0"/><path d="M113.36,199.79s16,20.49,27.67,20.49h49a26.64,26.64,0,0,0,16.66-5.85A161.82,161.82,0,0,0,223,199.83" fill="#fe0"/><polyline points="141.03 220.28 141.03 263.49 148.23 281.5 148.23 294.35 159.04 281.5 155.44 257.31 159.04 246.38 174.34 246.38 179.74 263.49 176.14 281.5 186.94 294.35 186.94 281.5 195.05 262.59 191.45 220.28" fill="#fe0"/><path d="M101.42,188.15l-9.9,21.9L69,208.31s1.8-24,4.5-47.46S114,139.25,114,139.25l7.55,0" fill="#fe0"/><path d="M231.07,191.48,241,210.05l26.11-2.4s-1.8-37.79-5.4-52.2S223,139.22,223,139.22h-5" fill="#fe0"/><polygon points="83.41 231.08 98.72 241.88 73.51 254.08 69.01 234.68 62.7 207.65 98.72 210.05 83.41 231.08" fill="#7348f8"/><polygon points="249.96 230.87 235.56 244.58 262.57 254.08 271.57 230.87 273.85 206.33 240.96 210.05 249.96 230.87" fill="#7348f8"/><rect x="141.03" y="220.28" width="51.03" height="14.4" fill="#ff39e7"/><ellipse cx="168.08" cy="227.36" rx="7.65" ry="2.81" fill="#ff39e7"/><path d="M89.71,168.06s11.7,2.37,11.7,20.09c0,17,39.1,11.87,62.12,6.65a14.08,14.08,0,0,1,5.45-.16c10.49,1.75,47.8,7.74,54,5.2,7.2-3,13.5-18,16.21-27.57s10.8-4.2,10.8-4.2" fill="#fe0"/><path d="M200.31,149.94l-26.21,4.94a29.51,29.51,0,0,1-11.21-.05l-23.72-4.71a29.51,29.51,0,0,1-23.76-28.94V75.34a20.1,20.1,0,0,1,20.1-20.1h88.83v65.7A29.51,29.51,0,0,1,200.31,149.94Z" fill="#fff"/><path d="M109.41,90h6a0,0,0,0,1,0,0V110.8a0,0,0,0,1,0,0h-6a5.32,5.32,0,0,1-5.32-5.32V95.29A5.32,5.32,0,0,1,109.41,90Z" fill="#fff"/><path d="M229.67,90h6a0,0,0,0,1,0,0V110.8a0,0,0,0,1,0,0h-6a5.32,5.32,0,0,1-5.32-5.32V95.29A5.32,5.32,0,0,1,229.67,90Z" transform="translate(460.01 200.76) rotate(180)" fill="#fff"/><path d="M169.52,98.65,137.58,80.13l4.17-7.87S120.91,75,120.45,95.64s19.91,34,22.22,34.71l2.31-5.78,24.54-9.26,27.78,7.87-.46,7.17a51.75,51.75,0,0,0,21.3-26.88c6-18.25-14.35-33.06-19.91-33.06l1.85,11.92Z" fill="#7348f8"/><path d="M179.67,100.46a5.11,5.11,0,0,0-2.17,5.44c1.2,4.92,5.52,12.59,21,8,14.1-4.15,15.1-12.36,14-17.74a7.26,7.26,0,0,0-7.41-5.79C200.11,90.58,191.65,92.5,179.67,100.46Z" fill="#fff"/><path d="M160.19,100.46a5.11,5.11,0,0,1,2.17,5.44c-1.2,4.92-5.52,12.59-21,8-14.1-4.15-15.1-12.36-14-17.74a7.26,7.26,0,0,1,7.41-5.79C139.75,90.58,148.21,92.5,160.19,100.46Z" fill="#fff"/><path d="M164.74,130.35s5.78,2.89,9.6,0" fill="#fff"/><path d="M155.43,139.22s6.29,4.91,18.91,3.52" fill="#fff"/><path d="M209,15.68C225.8,25.42,228.16,41,228.16,41c13.89,26.39-3.7,55.75-3.7,55.75s3.7-25.93-4.17-27.87c0,0-2.31-3.78,4.17-7,0,0-5.56-.47-9.26-3.25L212.28,53s-8.33,10.45-26.85,2.12" fill="#ff39e7"/><path d="M115.6,61.84l4.55,3.7a50.86,50.86,0,0,0-4.55,31.21s-21.82-39.69-.76-63.69l5.32-9.65V35.52S137.28,20,137.28,15.68v10" fill="#ff39e7"/><path d="M161.36,41s2.78-11.57,12.5-16.2,12.5-14.35,9.72-21.3c0,0-3.7,9.54-16.67,12.18-3.75.76,2.31-12.18,2.31-12.18-.93,2.09-11.11,9.72-11.11,9.72-18.06,4.17-26,17.36-26,17.36" fill="#ff39e7"/><path d="M209,38.22s6.48-19.16,0-22.54l-12.5,6.57c13.43-8.1,6-10,6-10C196.54,18.78,183,16,183,16" fill="#ff39e7"/><path d="M195.11,41a32.62,32.62,0,0,0,9-10.06" fill="#ff39e7"/><path d="M155.43,257.31,159,281.5l-10.81,12.84V281.5l-7.2-18h0l3.65,1.08a12.4,12.4,0,0,0,9.51-4Z" fill="#7348f8"/><path d="M195,262.59l-8.1,18.91v12.84L176.14,281.5l3.6-18,2.35,1.84c3.54,1.75,7.06,3,10.51,1Z" fill="#7348f8"/><path d="M141,263.49s10.8,4.75,14.4-6.18" fill="#fe0"/><path d="M179.74,263.49s10.8,9,15.3-.9" fill="#fe0"/><path d="M98.72,140.44,110,153.93h12l-8-14.68S103.29,140.1,98.72,140.44Z" fill="#47fbe0"/><polygon points="227.36 139.88 218.57 152.55 230.41 153.93 241.21 142.33 227.36 139.88" fill="#47fbe0"/><circle cx="207.09" cy="176.91" r="11.24" fill="#ff39e7"/><path d="M207.29,178.38h-2v4h-2.5V171.53h4.51a5.55,5.55,0,0,1,3.32.85,2.82,2.82,0,0,1,1.17,2.41,3.06,3.06,0,0,1-.54,1.85,3.61,3.61,0,0,1-1.63,1.18l2.63,4.42v.1h-2.68Zm-2-1.8h2a2.23,2.23,0,0,0,1.46-.43,1.45,1.45,0,0,0,.52-1.18,1.54,1.54,0,0,0-.49-1.2,2.19,2.19,0,0,0-1.5-.44h-2Z" fill="#3a1772"/><path d="M188.67,47.94s-7.67,9.12-17.49,8" fill="#ff39e7"/><line x1="74.56" y1="240.28" x2="76.22" y2="246.88" fill="none"/><path d="M109.31,58.25s6.34,5.9,12.5,1.64c7.27-5,11.57-2.68,11.57-2.68" fill="#ff39e7"/><path d="M120.15,48.93S129,63.08,144,56" fill="#ff39e7"/><path d="M134,48.93s11.15,12.3,21.55,7" fill="#ff39e7"/><path d="M183.58,41s-7.41,16.24-20.37,15.07c0,0-8.8,5.09-17.59-10.54" fill="#ff39e7"/><path d="M159.75,22.25s-12.8,3.92-14.93,10.62" fill="#ff39e7"/><path d="M132.08,44.85A21.27,21.27,0,0,1,127.44,41" fill="#ff39e7"/><line x1="247.67" y1="213.47" x2="259.25" y2="211.9" fill="none"/><path d="M191.7,14.59h-.08L185,15.83" fill="none"/><path d="M129,55.63l.86-.12h.05l3.33-.49.37,0h0" fill="none"/><rect x="108.67" y="137.22" width="124.33" height="35.42" fill="none"/><path d="M195.06,218.28l1,14.4v6.75c10.88,0,19.8,8.43,19.8,8.43-1.64-10.34,18.21-57.9,18.21-57.9l-.46.25" fill="none" stroke="#3a1772" stroke-linecap="round" stroke-linejoin="round" stroke-width="2.65"/><path d="M104.41,186.15s.92,2.32,2.27,6h0c4.73,13,14.81,43,10.34,51.68,0,0,18.11-13.68,27-4.45V218.28" fill="none" stroke="#3a1772" stroke-linecap="round" stroke-linejoin="round" stroke-width="2.65"/><path d="M116.36,197.79s16,20.49,27.67,20.49h49a26.64,26.64,0,0,0,16.66-5.85A161.82,161.82,0,0,0,226,197.83" fill="none" stroke="#3a1772" stroke-linecap="round" stroke-linejoin="round" stroke-width="3"/><polyline points="144.03 218.28 144.03 261.49 151.23 279.5 151.23 292.35 162.04 279.5 158.44 255.31 162.04 244.38 177.34 244.38 182.74 261.49 179.14 279.5 189.94 292.35 189.94 279.5 198.05 260.59 194.45 218.28" fill="none" stroke="#3a1772" stroke-linecap="round" stroke-linejoin="round" stroke-width="3"/><path d="M104.42,186.15l-9.9,21.9L72,206.31s1.8-24,4.5-47.46S117,137.25,117,137.25l7.55,0" fill="none" stroke="#3a1772" stroke-linecap="round" stroke-linejoin="round" stroke-width="3"/><path d="M234.07,189.48,244,208.05l26.11-2.4s-1.8-37.79-5.4-52.2S226,137.22,226,137.22h-5" fill="none" stroke="#3a1772" stroke-linecap="round" stroke-linejoin="round" stroke-width="3"/><polygon points="86.41 229.08 101.72 239.88 76.51 252.08 72.01 232.68 65.7 205.65 101.72 208.05 86.41 229.08" fill="none" stroke="#3a1772" stroke-linecap="round" stroke-linejoin="round" stroke-width="3"/><polygon points="252.96 228.87 238.56 242.58 265.57 252.08 274.57 228.87 276.85 204.33 243.96 208.05 252.96 228.87" fill="none" stroke="#3a1772" stroke-linecap="round" stroke-linejoin="round" stroke-width="3"/><rect x="144.03" y="218.28" width="51.03" height="14.4" fill="none" stroke="#3a1772" stroke-linecap="round" stroke-linejoin="round" stroke-width="2.65"/><ellipse cx="171.08" cy="225.36" rx="7.65" ry="2.81" fill="none" stroke="#3a1772" stroke-linecap="round" stroke-linejoin="round" stroke-width="2.65"/><path d="M253,166.06s-8.1-5.4-10.8,4.2a80.35,80.35,0,0,1-8.55,19.95c-2.32,3.64-4.93,6.5-7.66,7.62-1.29.53-3.93.69-7.4.59-13.17-.36-38.27-4.4-46.57-5.78a13.89,13.89,0,0,0-5.45.16c-19.7,4.47-51.18,8.9-59.85-.6h0a8.62,8.62,0,0,1-2.27-6c0-17.71-11.7-20.09-11.7-20.09" fill="none" stroke="#3a1772" stroke-linecap="round" stroke-linejoin="round" stroke-width="3"/><line x1="188.61" y1="53.24" x2="180.86" y2="53.24" fill="none" stroke="#3a1772" stroke-linecap="round" stroke-linejoin="round" stroke-width="3"/><line x1="227.34" y1="59.9" x2="227.34" y2="59.82" fill="none" stroke="#3a1772" stroke-linecap="round" stroke-linejoin="round" stroke-width="3"/><path d="M227.34,93.29v25.65a29.51,29.51,0,0,1-24,29l-26.2,4.94a29.61,29.61,0,0,1-11.22-.05l-23.71-4.71a29.5,29.5,0,0,1-23.76-28.94V78.7" fill="none" stroke="#3a1772" stroke-linecap="round" stroke-linejoin="round" stroke-width="3"/><path d="M129,55.63l-.75.42h0a20.12,20.12,0,0,0-6.56,6.29" fill="none" stroke="#3a1772" stroke-linecap="round" stroke-linejoin="round" stroke-width="3"/><line x1="216.43" y1="53.24" x2="212.73" y2="53.24" fill="none" stroke="#3a1772" stroke-linecap="round" stroke-linejoin="round" stroke-width="3"/><path d="M112.41,88h6a0,0,0,0,1,0,0V108.8a0,0,0,0,1,0,0h-6a5.32,5.32,0,0,1-5.32-5.32V93.29A5.32,5.32,0,0,1,112.41,88Z" fill="none" stroke="#3a1772" stroke-linecap="round" stroke-linejoin="round" stroke-width="3"/><path d="M227.34,88h6a5.32,5.32,0,0,1,5.32,5.32v10.19a5.32,5.32,0,0,1-5.32,5.32h-6Z" fill="none" stroke="#3a1772" stroke-linecap="round" stroke-linejoin="round" stroke-width="3"/><path d="M221.13,101.47a51.78,51.78,0,0,1-21.29,26.89l.46-7.17-27.78-7.87L148,122.58l-2.31,5.78c-2.32-.7-22.69-14.12-22.22-34.72s21.29-23.38,21.29-23.38l-4.16,7.87,31.94,18.52,30.56-16.32-1.86-11.92C206.78,68.41,227.15,83.22,221.13,101.47Z" fill="none" stroke="#3a1772" stroke-linecap="round" stroke-linejoin="round" stroke-width="3"/><path d="M182.67,98.46a5.11,5.11,0,0,0-2.17,5.44c1.2,4.92,5.52,12.59,21,8,14.1-4.15,15.1-12.36,14-17.74a7.26,7.26,0,0,0-7.41-5.79C203.11,88.58,194.65,90.5,182.67,98.46Z" fill="none" stroke="#3a1772" stroke-linecap="round" stroke-linejoin="round" stroke-width="3"/><path d="M163.19,98.46a5.11,5.11,0,0,1,2.17,5.44c-1.2,4.92-5.52,12.59-21,8-14.1-4.15-15.1-12.36-14-17.74a7.26,7.26,0,0,1,7.41-5.79C142.75,88.58,151.21,90.5,163.19,98.46Z" fill="none" stroke="#3a1772" stroke-linecap="round" stroke-linejoin="round" stroke-width="3"/><path d="M167.74,128.35s5.78,2.89,9.6,0" fill="none" stroke="#3a1772" stroke-linecap="round" stroke-linejoin="round" stroke-width="3"/><path d="M158.43,137.22s6.29,4.91,18.91,3.52" fill="none" stroke="#3a1772" stroke-linecap="round" stroke-linejoin="round" stroke-width="3"/><path d="M212,13.68l.39.23C228.84,23.66,231.15,39,231.15,39c13.89,26.39-3.81,49-3.81,49a32.55,32.55,0,0,0,0-15.59c-.75-2.87-2-5-4.06-5.5,0,0-2.28-3.75,4.06-7l.11-.06-.11,0c-.79-.07-5.75-.68-9.15-3.23l-1.76-3.35L215.28,51a12.24,12.24,0,0,1-2.55,2.2c-3.71,2.51-11.55,5.59-24.12,0l-.18-.08" fill="none" stroke="#3a1772" stroke-linecap="round" stroke-linejoin="round" stroke-width="3"/><path d="M118.41,93.64c.06.37.12.74.19,1.11l-.19-.35c-2.08-4-20.47-40.66-.58-63.34l5.32-9.65V33.52S140.28,18,140.28,13.68v10" fill="none" stroke="#3a1772" stroke-linecap="round" stroke-linejoin="round" stroke-width="3"/><path d="M121.69,62.35l1.46,1.19a48.85,48.85,0,0,0-4.74,15.16" fill="none" stroke="#3a1772" stroke-linecap="round" stroke-linejoin="round" stroke-width="3"/><path d="M164.36,39s2.78-11.57,12.5-16.2,12.5-14.35,9.72-21.3c0,0-3.7,9.54-16.67,12.18-3.75.76,2.31-12.18,2.31-12.18-.93,2.09-11.11,9.72-11.11,9.72-18.06,4.17-26,17.36-26,17.36" fill="none" stroke="#3a1772" stroke-linecap="round" stroke-linejoin="round" stroke-width="3"/><path d="M212,36.22s6.21-18.37.39-22.31l-.39-.23-12.5,6.57c13.42-8.1,6-9.95,6-9.95-3.46,3.72-9.42,4.39-13.86,4.29h-.08A34.87,34.87,0,0,1,186,14h0" fill="none" stroke="#3a1772" stroke-linecap="round" stroke-linejoin="round" stroke-width="3"/><path d="M207.08,28.94a37.18,37.18,0,0,1-3,4.27h0a28.77,28.77,0,0,1-6,5.78" fill="none" stroke="#3a1772" stroke-linecap="round" stroke-linejoin="round" stroke-width="3"/><path d="M158.43,255.31,162,279.5l-10.81,12.84V279.5l-7.2-18h0l3.65,1.08a12.4,12.4,0,0,0,9.51-4Z" fill="none" stroke="#3a1772" stroke-linecap="round" stroke-linejoin="round" stroke-width="3"/><path d="M198,260.59l-8.1,18.91v12.84L179.14,279.5l3.6-18,2.35,1.84c3.54,1.75,7.06,3,10.51,1Z" fill="none" stroke="#3a1772" stroke-linecap="round" stroke-linejoin="round" stroke-width="3"/><path d="M144,261.49s10.8,4.75,14.4-6.18" fill="none" stroke="#3a1772" stroke-linecap="round" stroke-linejoin="round" stroke-width="3"/><path d="M182.74,261.49s10.8,9,15.3-.9" fill="none" stroke="#3a1772" stroke-linecap="round" stroke-linejoin="round" stroke-width="3"/><path d="M101.72,138.44,113,151.93h12l-8-14.68S106.29,138.1,101.72,138.44Z" fill="none" stroke="#3a1772" stroke-linecap="round" stroke-linejoin="round" stroke-width="2.65"/><polygon points="230.36 137.88 221.57 150.55 233.41 151.93 244.21 140.33 230.36 137.88" fill="none" stroke="#3a1772" stroke-linecap="round" stroke-linejoin="round" stroke-width="2.65"/><circle cx="210.09" cy="174.91" r="11.24" fill="none" stroke="#3a1772" stroke-linecap="round" stroke-linejoin="round" stroke-width="2.65"/><path d="M174.17,54a16.05,16.05,0,0,0,6.69-.74l.21-.07a26.7,26.7,0,0,0,10.6-7.22" fill="none" stroke="#3a1772" stroke-linecap="round" stroke-linejoin="round" stroke-width="3"/><polyline points="255.13 243.88 262.07 245.88 265.66 238.28" fill="none" stroke="#3a1772" stroke-linecap="round" stroke-linejoin="round" stroke-width="3"/><line x1="77.56" y1="238.28" x2="79.22" y2="244.88" fill="none" stroke="#3a1772" stroke-linecap="round" stroke-linejoin="round" stroke-width="1.98"/><polyline points="83.71 211.47 92.71 212.02 87.15 218.91" fill="#7348f8" stroke="#3a1772" stroke-linecap="round" stroke-linejoin="round" stroke-width="3"/><path d="M232.89,95.76s1.92,2.07,1.18,7.55" fill="none" stroke="#3a1772" stroke-linecap="round" stroke-linejoin="round" stroke-width="3"/><path d="M112.75,95.76s-2.07,5.85-.44,7.55" fill="none" stroke="#3a1772" stroke-linecap="round" stroke-linejoin="round" stroke-width="3"/><path d="M112.3,56.25s6.31,5.85,12.5,1.65a17.41,17.41,0,0,1,3.45-1.84h0a14.5,14.5,0,0,1,1.61-.54h.05a14.79,14.79,0,0,1,3.23-.53,3.73,3.73,0,0,1,.47,0h0" fill="none" stroke="#3a1772" stroke-linecap="round" stroke-linejoin="round" stroke-width="3"/><path d="M123.15,46.93a22.23,22.23,0,0,0,8.61,7.47c.45.21.91.4,1.39.57l.1,0c3.68,1.32,8.31,1.54,13.75-1h0" fill="none" stroke="#3a1772" stroke-linecap="round" stroke-linejoin="round" stroke-width="3"/><path d="M137,46.93a32.34,32.34,0,0,0,8.37,6.31c.38.2.78.38,1.18.56L147,54h0c3.53,1.45,7.61,2,11.57,0" fill="none" stroke="#3a1772" stroke-linecap="round" stroke-linejoin="round" stroke-width="3"/><path d="M148.61,43.52c2.61,4.64,5.22,7.45,7.6,9.12q.47.33.93.6a14.09,14.09,0,0,0,1.44.74,8.83,8.83,0,0,0,7.62.09,15.1,15.1,0,0,0,8.85-2C182.48,48,186.58,39,186.58,39" fill="none" stroke="#3a1772" stroke-linecap="round" stroke-linejoin="round" stroke-width="3"/><path d="M162.75,20.25a42.76,42.76,0,0,0-7.76,3.4h0c-3.12,1.78-6.21,4.22-7.17,7.22" fill="none" stroke="#3a1772" stroke-linecap="round" stroke-linejoin="round" stroke-width="3"/><path d="M135.08,42.85A21.27,21.27,0,0,1,130.44,39" fill="none" stroke="#3a1772" stroke-linecap="round" stroke-linejoin="round" stroke-width="3"/><path d="M214.57,224.47s-2.52,6.61-2.5,11.24" fill="none" stroke="#3a1772" stroke-linecap="round" stroke-linejoin="round" stroke-width="3"/><path d="M123.44,232.68s6.43-3.36,10-2.58" fill="none" stroke="#3a1772" stroke-linecap="round" stroke-linejoin="round" stroke-width="3"/><line x1="250.67" y1="211.47" x2="262.25" y2="209.9" fill="none" stroke="#3a1772" stroke-linecap="round" stroke-linejoin="round" stroke-width="1.98"/><ellipse cx="167.94" cy="317.65" rx="43.62" ry="3.31" fill="#3e4244" stroke="#3a1772" stroke-miterlimit="10" opacity="0.13"/><g id="_1qBVpY" data-name="1qBVpY" opacity="0.13"><path d="M335.61,111.7a76.32,76.32,0,0,0-8.57-.77,42.48,42.48,0,0,0-9.4,1.06c-4.93,1.22-7.93,4.63-9.14,9.72-1.23-.3-2.33-.65-3.47-.85-2.85-.5-4.5.32-5.81,2.87-1.14,2.22-2.22,4.46-3.4,6.84l-5.19-4.48c-3-2.61-5.08-2.64-8.23-.14-.51.4-1,.82-1.67,1.36-3.24-4.54-7.71-6.53-13-5.42-3.91.83-7.65,2.57-11.39,4.07a38,38,0,0,0-4.6,2.63,6.36,6.36,0,0,1-.26-1.36,36.07,36.07,0,0,1,5.37-17.82,11.43,11.43,0,0,1,10.73-5.77c5.3.19,10.62,0,16.23-.06l-.57-4.93A11.09,11.09,0,0,0,295,96.3l1.41,4.73,10.45-4.21c1.92-.77,3.86-1.5,5.74-2.35a9.66,9.66,0,0,1,9.15.55c6.49,3.67,10.75,9.31,13.82,16A2.06,2.06,0,0,1,335.61,111.7Z" fill="#3e4244"/></g><g id="_1qBVpY-2" data-name="1qBVpY" opacity="0.13"><path d="M83.34,86.92a52.06,52.06,0,0,0-4.19-4.11,29,29,0,0,0-5.42-3.5c-3.12-1.49-6.19-1-9,1.18-.52-.69-1-1.35-1.46-1.94a3.23,3.23,0,0,0-4.31-1c-1.56.68-3.1,1.39-4.75,2.14-.29-1.63-.55-3.12-.8-4.61-.46-2.67-1.54-3.59-4.28-3.63H47.63c.25-3.79-1.24-6.78-4.5-8.46a48.64,48.64,0,0,0-7.77-2.78,25.91,25.91,0,0,0-3.56-.6,4.34,4.34,0,0,1,.45-.83,24.61,24.61,0,0,1,10.54-7.09,7.8,7.8,0,0,1,8.15,1.59c2.72,2.39,5.61,4.58,8.59,7l1.83-2.85a7.57,7.57,0,0,0,7.22,3.84l-1.3,3.1,7.34,2.29c1.35.42,2.68.88,4,1.24a6.59,6.59,0,0,1,4.59,4.24c1.84,4.74,1.65,9.56.39,14.4C83.61,86.66,83.47,86.76,83.34,86.92Z" fill="#3e4244"/></g><g opacity="0.13"><g id="_1qBVpY-3" data-name="1qBVpY"><path d="M111.24,261.15a21.28,21.28,0,0,0-2.38.32,11.85,11.85,0,0,0-2.49.87,3.37,3.37,0,0,0-1.89,3.2c-.35,0-.67,0-1,0a1.32,1.32,0,0,0-1.4,1.14c-.17.67-.33,1.35-.51,2.07l-1.69-.9a1.5,1.5,0,0,0-2.25.47l-.37.47a3.38,3.38,0,0,0-3.86-.68,19.89,19.89,0,0,0-2.85,1.81,10.59,10.59,0,0,0-1.09,1,1.77,1.77,0,0,1-.15-.35,10.06,10.06,0,0,1,.37-5.18,3.19,3.19,0,0,1,2.57-2.23c1.45-.27,2.89-.66,4.41-1l-.46-1.31a3.09,3.09,0,0,0,3.05-1.36l.67,1.2,2.58-1.79c.47-.33,1-.64,1.42-1a2.69,2.69,0,0,1,2.52-.41,9.36,9.36,0,0,1,4.74,3.5A.57.57,0,0,1,111.24,261.15Z" fill="#3e4244" stroke="#3a1772" stroke-miterlimit="10"/></g></g><g opacity="0.13"><g id="_1qBVpY-4" data-name="1qBVpY"><path d="M305,160.63a27.57,27.57,0,0,0-3.08.41,15.35,15.35,0,0,0-3.23,1.12,4.36,4.36,0,0,0-2.45,4.15c-.46,0-.87,0-1.29,0a1.71,1.71,0,0,0-1.82,1.47c-.22.87-.43,1.75-.66,2.68l-2.18-1.17a1.94,1.94,0,0,0-2.91.61l-.48.61a4.37,4.37,0,0,0-5-.88,25.76,25.76,0,0,0-3.69,2.34,13.72,13.72,0,0,0-1.41,1.29,2.3,2.3,0,0,1-.2-.46,13,13,0,0,1,.48-6.71,4.13,4.13,0,0,1,3.32-2.88c1.88-.36,3.74-.85,5.72-1.31l-.59-1.69a4,4,0,0,0,4-1.76l.87,1.55,3.35-2.32c.61-.43,1.24-.83,1.84-1.28a3.49,3.49,0,0,1,3.27-.53,12.13,12.13,0,0,1,6.14,4.53A.74.74,0,0,1,305,160.63Z" fill="#3e4244" stroke="#3a1772" stroke-miterlimit="10"/></g></g><g opacity="0.13"><g id="_1qBVpY-5" data-name="1qBVpY"><path d="M94,116.54a27.57,27.57,0,0,0-3.08.41,15.35,15.35,0,0,0-3.23,1.12,4.36,4.36,0,0,0-2.45,4.15c-.46,0-.87,0-1.29,0a1.71,1.71,0,0,0-1.82,1.47c-.22.87-.43,1.75-.66,2.68l-2.18-1.17a1.94,1.94,0,0,0-2.91.61l-.48.61a4.37,4.37,0,0,0-5-.88,25.76,25.76,0,0,0-3.69,2.34,13.72,13.72,0,0,0-1.41,1.29,2.3,2.3,0,0,1-.2-.46A13,13,0,0,1,66.1,122a4.13,4.13,0,0,1,3.32-2.88c1.88-.36,3.74-.85,5.72-1.31l-.59-1.69a4,4,0,0,0,4-1.76l.87,1.55,3.35-2.32c.61-.43,1.24-.83,1.84-1.28a3.49,3.49,0,0,1,3.27-.53A12.13,12.13,0,0,1,94,116.29.74.74,0,0,1,94,116.54Z" fill="#3e4244" stroke="#3a1772" stroke-miterlimit="10"/></g></g></g></svg>