<svg xmlns="http://www.w3.org/2000/svg" viewBox="0 0 379.58 326.75"><title>fsg</title><g id="Layer_2" data-name="Layer 2"><path d="M281.88,138c-18.59,16.9-26.19-4.22-26.19-4.22-10.59-24.92-44.14-35-61-38.64a24,24,0,0,0-17.75,3.15l-9.83,6.14a7.5,7.5,0,0,1-8.43-.33l-11.42-8.43a15.67,15.67,0,0,0-8.46-3.08c-10.72-.57-36.48,3-69,41.19,0,0-6.85,15.41-17.26,11.05a1.11,1.11,0,0,0-1.28,1.75c8.3,9.14,24.68,21.82,45.51,10.86,30.49-16.05,63.74-30.42,116.83-11,0,0,17.23,28.73,57.31,2.53Z" fill="#ff39e7"/><path d="M270.89,149s-3.38,64.22-107.31,65.91-107-63.1-107-63.1l52.69-.69,2.72,0c9.32,4,64.09,25.4,97.72-1.28l3.84-2.29,2.53,2.2Z" fill="#ff39e7"/><path d="M216.07,147.58c-33.63,26.68-90.72,6.62-100,2.66-.9-.38-1.37-.6-1.37-.6" fill="none" stroke="#3a1772" stroke-linecap="round" stroke-linejoin="round" stroke-width="3"/><path d="M285.89,137.17c-18.59,16.9-26.19-4.22-26.19-4.22-10.59-24.92-44.14-35-61-38.64a24,24,0,0,0-17.75,3.15l-9.83,6.14a7.5,7.5,0,0,1-8.43-.33l-11.42-8.43a15.67,15.67,0,0,0-8.46-3.08c-9.33-.5-30.09,2.13-56.76,28.08A130.32,130.32,0,0,0,71,137.7c-4,5.55-11.84,12.52-21.71.32,0,0,21,34.64,51.47,18.59,29.91-15.75,62.47-29.87,113.8-12.06a10,10,0,0,1,4.49,3.09c4.92,6,22.45,22.36,55.85.53Z" fill="none" stroke="#3a1772" stroke-linecap="round" stroke-linejoin="round" stroke-width="3"/><path d="M60.63,151s3,64.78,107,63.09S274.9,148.16,274.9,148.16" fill="none" stroke="#3a1772" stroke-linecap="round" stroke-linejoin="round" stroke-width="3"/><circle cx="240.5" cy="81.83" r="5.31" fill="#47fbe0" stroke="#0f1e3d" stroke-linecap="round" stroke-linejoin="round" stroke-width="3"/><path d="M185.35,304.24V166.88a36.25,36.25,0,0,0-.45-5.74c0-.3-.09-.59-.15-.88a36.54,36.54,0,0,0-14.65-23.09c-.43-.32-.87-.62-1.31-.91a36.43,36.43,0,0,0-20-5.95H137V304.24" fill="#fff" stroke="#0f1e3d" stroke-linecap="round" stroke-linejoin="round" stroke-width="3"/><path d="M137,184.12s14.72,1.94,11.77-53.82v-2.1c-5.76-7.18-11.77,0-11.77,0Z" fill="#ffe904" stroke="#0f1e3d" stroke-linecap="round" stroke-linejoin="round" stroke-width="3.15"/><path d="M196.95,110.72s20.75.47,34.68,16.13" fill="none" stroke="#3a1772" stroke-linecap="round" stroke-linejoin="round" stroke-width="3"/><path d="M96.85,183.64a43,43,0,0,0,29.67,13.78" fill="none" stroke="#3a1772" stroke-linecap="round" stroke-linejoin="round" stroke-width="3"/></g></svg>