<svg xmlns="http://www.w3.org/2000/svg" viewBox="0 0 90 30"><title>icons</title><g id="Layer_2" data-name="Layer 2"><path d="M25.3,8.25a6.23,6.23,0,0,0,2.41-.65s-.17.59-2.23,2.47c0,0,.7,10.11-9.91,12.59,0,0-5.38,1.15-9.28-1.78,0,0,4.08.73,6.38-1.81a4.18,4.18,0,0,1-3.9-3A3.55,3.55,0,0,0,10.55,16a4.28,4.28,0,0,1-3.29-4.35A2.81,2.81,0,0,0,9,12.2S6,9.63,7.83,6.43c0,0,4,4.79,9.07,4.5a4.31,4.31,0,0,1,7.25-4.1,4.94,4.94,0,0,0,2.93-.94S27.15,6.82,25.3,8.25Z" fill="none" stroke="#3a1772" stroke-linecap="round" stroke-linejoin="round" stroke-width="1.5" fill-rule="evenodd"/><path d="M51.84,7.6H50.42a.48.48,0,0,0-.48.49V9.57a.48.48,0,0,0,.48.49h1.43a.48.48,0,0,0,.47-.49V8.09A.48.48,0,0,0,51.84,7.6Z" fill="none" stroke="#3a1772" stroke-linecap="round" stroke-linejoin="round" stroke-width="1"/><circle cx="45" cy="17.31" r="3.05" fill="none" stroke="#3a1772" stroke-linecap="round" stroke-linejoin="round" stroke-width="1.5"/><circle cx="45" cy="17.31" r="5.59" fill="none" stroke="#3a1772" stroke-linecap="round" stroke-linejoin="round" stroke-width="1.5"/><rect x="34.42" y="5.09" width="21.16" height="21.16" rx="3.65" ry="3.65" fill="none" stroke="#3a1772" stroke-linecap="round" stroke-linejoin="round" stroke-width="1.5"/><line x1="55.57" y1="12.09" x2="46.99" y2="12.09" fill="none" stroke="#3a1772" stroke-linecap="round" stroke-linejoin="round" stroke-width="1"/><line x1="43.01" y1="12.09" x2="34.42" y2="12.09" fill="none" stroke="#3a1772" stroke-linecap="round" stroke-linejoin="round" stroke-width="1"/><path d="M79.06,3.75H75.69a4.65,4.65,0,0,0-4.76,3.56,11.17,11.17,0,0,0-.3,3.47H66.94v2.92h4v11h4v-11h4V10.78h-4V9A2.24,2.24,0,0,1,77.4,6.79h1.65Z" fill="none" stroke="#3a1772" stroke-linecap="round" stroke-linejoin="round" stroke-width="1.5" fill-rule="evenodd"/></g></svg>