<svg xmlns="http://www.w3.org/2000/svg" viewBox="0 0 129.41 105.62"><title>fsg</title><g id="SIDE_CONFETTI" data-name="SIDE CONFETTI"><path d="M109.5,98.35,5.66,39.52A59.67,59.67,0,1,1,109.5,98.35Z" fill="#47fbe0"/><path d="M109.5,98.35,5.66,39.52S-5,25.08,2.93,24.06s16.88-7.9,18.35-12.12S31.7.85,37,2.47,54.54,4.6,57.3,2s17.63-2.87,19.63.09,10.34,12.29,15.8,11.71,13.88,5.56,14.71,10.63,9.39,12.21,14.09,16.71,5.46,14.12,3.05,17.35-4.15,16.94.78,21.57S116.37,96.4,109.5,98.35Z" fill="#fe0"/><path d="M111.05,103.61,7.22,44.79a59.67,59.67,0,1,1,103.83,58.83Z" fill="none" stroke="#3a1772" stroke-miterlimit="10" stroke-width="2.94"/><path d="M111.05,103.61,7.22,44.79S-3.44,30.35,4.49,29.33s16.88-7.9,18.35-12.12,10.41-11.1,15.7-9.48S56.1,9.87,58.85,7.3s17.63-2.87,19.63.09S88.82,19.68,94.28,19.1,108.15,24.66,109,29.73s9.39,12.21,14.09,16.71,5.46,14.12,3.05,17.35-4.15,16.94.78,21.57S117.93,101.66,111.05,103.61Z" fill="none" stroke="#3a1772" stroke-miterlimit="10" stroke-width="2.94"/><circle cx="19.62" cy="42.09" r="1.73" transform="translate(-26.67 38.41) rotate(-60.47)" fill="none" stroke="#3a1772" stroke-miterlimit="10" stroke-width="2.94"/><circle cx="34.37" cy="33.61" r="1.73" transform="translate(-11.81 46.95) rotate(-60.47)" fill="none" stroke="#3a1772" stroke-miterlimit="10" stroke-width="2.94"/><circle cx="37.55" cy="50.25" r="1.73" transform="translate(-24.68 58.15) rotate(-60.47)" fill="none" stroke="#3a1772" stroke-miterlimit="10" stroke-width="2.94"/><circle cx="50.84" cy="40.95" r="1.73" transform="translate(-9.85 65) rotate(-60.47)" fill="none" stroke="#3a1772" stroke-miterlimit="10" stroke-width="2.94"/><circle cx="49.93" cy="25.77" r="1.73" transform="translate(2.9 56.51) rotate(-60.47)" fill="none" stroke="#3a1772" stroke-miterlimit="10" stroke-width="2.94"/><circle cx="68" cy="28.04" r="1.73" transform="translate(10.08 73.39) rotate(-60.47)" fill="none" stroke="#3a1772" stroke-miterlimit="10" stroke-width="2.94"/><circle cx="68.12" cy="42.27" r="1.73" transform="translate(-2.24 80.7) rotate(-60.47)" fill="none" stroke="#3a1772" stroke-miterlimit="10" stroke-width="2.94"/><circle cx="81.94" cy="33.95" r="1.73" transform="translate(12.01 88.51) rotate(-60.47)" fill="none" stroke="#3a1772" stroke-miterlimit="10" stroke-width="2.94"/><circle cx="83.69" cy="49.1" r="1.73" transform="translate(-0.28 97.71) rotate(-60.47)" fill="none" stroke="#3a1772" stroke-miterlimit="10" stroke-width="2.94"/><circle cx="98.54" cy="47.34" r="1.73" transform="translate(8.78 109.74) rotate(-60.47)" fill="none" stroke="#3a1772" stroke-miterlimit="10" stroke-width="2.94"/><circle cx="52.78" cy="54.9" r="1.73" transform="translate(-21 73.76) rotate(-60.47)" fill="none" stroke="#3a1772" stroke-miterlimit="10" stroke-width="2.94"/><circle cx="69.67" cy="55.6" r="1.73" transform="translate(-13.05 88.81) rotate(-60.47)" fill="none" stroke="#3a1772" stroke-miterlimit="10" stroke-width="2.94"/><circle cx="92.29" cy="61.89" r="1.73" transform="translate(-7.06 111.68) rotate(-60.47)" fill="none" stroke="#3a1772" stroke-miterlimit="10" stroke-width="2.94"/><circle cx="79.99" cy="72.31" r="1.73" transform="translate(-22.35 106.26) rotate(-60.47)" fill="none" stroke="#3a1772" stroke-miterlimit="10" stroke-width="2.94"/><circle cx="63.31" cy="66.84" r="1.73" transform="translate(-26.05 88.97) rotate(-60.47)" fill="none" stroke="#3a1772" stroke-miterlimit="10" stroke-width="2.94"/><circle cx="90.99" cy="80.53" r="1.73" transform="translate(-23.93 120) rotate(-60.47)" fill="none" stroke="#3a1772" stroke-miterlimit="10" stroke-width="2.94"/><circle cx="101.58" cy="73.67" r="1.73" transform="translate(-12.6 125.74) rotate(-60.47)" fill="none" stroke="#3a1772" stroke-miterlimit="10" stroke-width="2.94"/><circle cx="107.12" cy="60.38" r="1.73" transform="translate(1.78 123.82) rotate(-60.47)" fill="none" stroke="#3a1772" stroke-miterlimit="10" stroke-width="2.94"/><circle cx="105.52" cy="86.77" r="1.73" transform="translate(-21.99 135.81) rotate(-60.47)" fill="none" stroke="#3a1772" stroke-miterlimit="10" stroke-width="2.94"/></g></svg>